<?xml version="1.0" encoding="UTF-8" standalone="no"?>
<!-- Created with Inkscape (http://www.inkscape.org/) -->

<svg
   xmlns:dc="http://purl.org/dc/elements/1.1/"
   xmlns:cc="http://creativecommons.org/ns#"
   xmlns:rdf="http://www.w3.org/1999/02/22-rdf-syntax-ns#"
   xmlns:svg="http://www.w3.org/2000/svg"
   xmlns="http://www.w3.org/2000/svg"
   xmlns:sodipodi="http://sodipodi.sourceforge.net/DTD/sodipodi-0.dtd"
   xmlns:inkscape="http://www.inkscape.org/namespaces/inkscape"
   width="360"
   height="150"
   id="svg2"
   version="1.1"
   inkscape:version="0.48.3.1 r9886"
   sodipodi:docname="topmenu-different.svg"
   inkscape:export-filename="/home/pascal/Desktop/Design Test/rect.png"
   inkscape:export-xdpi="90"
   inkscape:export-ydpi="90">
  <defs
     id="defs4" />
  <sodipodi:namedview
     id="base"
     pagecolor="#ffffff"
     bordercolor="#666666"
     borderopacity="1.0"
     inkscape:pageopacity="0.0"
     inkscape:pageshadow="2"
     inkscape:zoom="2.7530024"
     inkscape:cx="68.383018"
     inkscape:cy="65.568215"
     inkscape:document-units="px"
     inkscape:current-layer="layer1"
     showgrid="false"
     inkscape:window-width="1215"
     inkscape:window-height="776"
     inkscape:window-x="65"
     inkscape:window-y="24"
     inkscape:window-maximized="1"
     showguides="true"
     inkscape:guide-bbox="true" />
  <metadata
     id="metadata7">
    <rdf:RDF>
      <cc:Work
         rdf:about="">
        <dc:format>image/svg+xml</dc:format>
        <dc:type
           rdf:resource="http://purl.org/dc/dcmitype/StillImage" />
        <dc:title></dc:title>
      </cc:Work>
    </rdf:RDF>
  </metadata>
  <g
     inkscape:label="Layer 1"
     inkscape:groupmode="layer"
     id="layer1"
     transform="translate(0,-902.36218)">
    <path
       style="fill:#000000;fill-opacity:0.30593607;fill-rule:evenodd;stroke:none"
       d="M 0 0.4375 L 0 142 L 70 125.125 L 70 114.65625 C 69.945057 114.8792 69.731743 114.97356 69.3125 114.96875 C 69.080419 114.96875 67.901533 114.6528 65.8125 114 C 64.148751 113.4794 62.376807 113.0986 60.5 112.875 C 59.834478 112.8 58.031293 112.6514 55.03125 112.4375 C 54.95011 112.3317 54.90464 112.2047 54.90625 112.0625 C 54.90885 111.8378 55.023559 111.5866 55.28125 111.3125 C 55.53897 111.0384 55.783077 110.9201 56 110.9375 L 62.46875 111.5625 C 62.45229 111.0383 62.414218 110.26035 62.34375 109.21875 C 62.228552 108.16165 61.877526 107.52015 61.28125 107.28125 C 61.072575 107.19725 60.258128 107.0555 58.875 106.875 C 57.813299 106.743 57.055252 106.6254 56.5625 106.5 C 55.681418 106.2878 54.963047 105.94945 54.40625 105.53125 C 54.37743 105.43425 54.34325 105.38865 54.34375 105.34375 C 54.34795 104.97685 54.570441 104.72405 54.96875 104.59375 L 61.4375 105.625 C 61.672026 104.7593 61.79702 104.2949 61.8125 104.25 C 62.020802 103.7134 62.304414 103.38915 62.6875 103.28125 C 62.953941 103.55385 63.169791 104.0094 63.3125 104.625 C 63.36863 104.9551 63.499616 105.4064 63.6875 106 C 63.928999 106.4895 64.322117 106.80255 64.875 106.90625 C 66.75792 107.24975 68.320257 107.4409 69.5625 107.5 L 69.375 106.59375 C 69.44255 106.57975 69.526372 106.59375 69.59375 106.59375 C 69.729778 106.59375 69.864418 106.61543 70 106.65625 L 70 101.875 C 69.722069 102.47662 69.286639 102.9861 68.71875 103.4375 C 68.538905 103.4505 68.359692 103.47075 68.1875 103.46875 C 66.435666 103.44875 64.94402 102.78625 63.65625 101.46875 C 62.832744 101.45875 62.131183 101.09415 61.5625 100.40625 C 61.023437 99.74875 60.740428 98.99465 60.75 98.15625 C 60.7625 97.06318 61.165952 96.14323 61.96875 95.34375 C 62.764164 94.53672 63.719479 94.11252 64.8125 94.125 C 66.317288 94.1422 67.632974 94.74921 68.75 95.9375 C 69.308515 96.531655 69.725063 97.168616 70 97.84375 L 70 92.5625 C 69.97731 92.562765 69.960683 92.565011 69.9375 92.5625 L 63.03125 91.9375 C 62.94899 91.9295 62.908696 91.69178 62.90625 91.25 C 62.907113 91.1751 62.91355 91.1163 62.90625 91.09375 L 64.03125 90.28125 C 63.443845 89.92263 62.88439 89.44727 62.375 88.8125 C 61.784389 88.07947 61.493422 87.42021 61.5 86.84375 C 61.5057 86.34964 61.735325 85.97565 62.1875 85.71875 C 62.375869 85.61609 62.799017 85.46114 63.4375 85.28125 C 63.888236 85.15163 64.123038 85.01595 64.125 84.84375 C 64.125086 84.83675 63.769147 84.28258 63.0625 83.21875 C 62.348467 82.14739 61.992822 81.31638 62 80.6875 C 62.01421 79.44476 62.889445 78.82358 64.65625 78.84375 C 64.865877 78.84575 66.118383 78.99306 68.40625 79.28125 C 69.026622 79.359797 69.544596 79.460055 70 79.5625 L 70 75.09375 C 69.895262 75.290969 69.763532 75.49124 69.625 75.65625 C 69.025356 76.36821 68.145435 76.70059 67 76.6875 C 66.827814 76.6855 66.579232 76.67555 66.25 76.65625 C 65.913284 76.63735 65.672194 76.6269 65.5 76.625 C 64.975951 76.619 64.576245 76.69703 64.3125 76.84375 C 64.207738 76.18366 63.767288 75.41641 62.96875 74.53125 C 62.118506 73.5856 61.613099 72.87962 61.46875 72.40625 C 61.230602 71.62484 61.113973 70.74702 61.125 69.78125 C 61.134 68.99518 61.292098 68.23069 61.5625 67.5 C 61.933238 66.50841 62.426157 66.02399 63.0625 66.03125 C 63.444318 66.03525 63.867338 66.20551 64.3125 66.5625 C 65.531222 68.68042 66.12036 70.89045 66.09375 73.21875 C 66.08885 73.64548 66.05005 74.08258 66 74.53125 C 66.265154 74.91614 66.629592 75.11971 67.09375 75.125 C 67.572888 75.13 67.95358 74.94847 68.25 74.5625 C 68.52345 74.2212 68.681855 73.80661 68.6875 73.3125 C 68.6955 72.61627 68.401797 71.50423 67.8125 70 C 67.223207 68.49579 66.930232 67.41761 66.9375 66.78125 C 66.9417 66.41442 67.04391 66.13637 67.21875 65.90625 C 68.570619 67.479383 69.484247 68.951175 70 70.34375 L 70 0.4375 L 0 0.4375 z M 63.03125 67.65625 C 62.747927 68.2071 62.601458 68.82622 62.59375 69.5 C 62.58665 70.12139 62.729231 70.74463 62.96875 71.40625 C 63.237287 72.15059 63.561983 72.70429 64 73.03125 C 64.237607 73.20618 64.42775 73.27971 64.5625 73.28125 C 64.817047 73.28425 64.963537 73.05043 64.96875 72.59375 C 64.97675 71.89752 64.782358 71.04542 64.375 70 C 63.967655 68.95459 63.504576 68.17082 63.03125 67.65625 z M 64.46875 80.21875 C 63.892297 80.21175 63.595809 80.28912 63.59375 80.46875 C 63.58805 80.97035 63.853239 81.59618 64.40625 82.34375 C 65.055143 83.21972 66.227226 84.25647 67.90625 85.40625 C 68.760611 85.99256 69.189811 86.36037 69.1875 86.5625 C 69.1841 86.86197 68.987005 87.14704 68.625 87.375 C 68.300602 87.58843 67.993144 87.69136 67.65625 87.6875 C 67.259469 87.6825 66.675052 87.5547 65.90625 87.34375 C 65.130056 87.12524 64.521789 87.03579 64.125 87.03125 C 63.892925 87.02825 63.680366 87.03605 63.5 87.09375 C 64.268934 87.94863 65.410282 88.77419 66.90625 89.5625 C 67.406403 89.819761 68.650995 90.402486 70 91 L 70 81.40625 C 69.773188 81.331467 69.523582 81.218532 69.21875 81.09375 C 68.689606 80.87807 67.913571 80.69158 66.875 80.5 C 65.881184 80.32393 65.090134 80.22586 64.46875 80.21875 z M 64.59375 95.75 C 64.032269 95.744 63.56628 95.95875 63.1875 96.34375 C 62.801247 96.7287 62.600174 97.18856 62.59375 97.75 C 62.58905 98.1618 62.741489 98.53375 63 98.84375 C 63.369326 98.63085 63.69306 98.52775 64 98.53125 C 64.449194 98.54125 64.893067 98.7834 65.34375 99.3125 C 65.734977 99.8037 66.139946 100.29745 66.53125 100.78125 C 67.027031 101.29605 67.555687 101.55475 68.125 101.53125 L 68.34375 101.5 C 68.35598 100.4295 68.317662 99.6427 68.21875 99.125 C 68.056316 98.2696 67.712798 97.58385 67.1875 97.03125 C 66.395774 96.20608 65.514593 95.76054 64.59375 95.75 z M 64.21875 108.1875 C 64.20224 108.3221 64.1893 108.4678 64.1875 108.625 C 64.1827 109.0442 64.264661 109.5996 64.40625 110.3125 C 64.569119 111.1305 64.661068 111.6927 64.6875 112 C 65.49994 112.3237 66.71882 112.75315 68.375 113.28125 C 68.580216 113.01405 68.866886 112.871 69.21875 112.875 C 69.540455 112.875 69.790331 113.03274 70 113.28125 L 70 108.78125 C 69.696512 108.83642 69.331923 108.8486 68.90625 108.84375 C 67.730873 108.83075 66.175509 108.6216 64.21875 108.1875 z "
       transform="translate(0,902.36218)"
       id="path3009" />
    <text
       xml:space="preserve"
       style="font-size:40px;font-style:normal;font-weight:normal;line-height:125%;letter-spacing:0px;word-spacing:0px;fill:#000000;fill-opacity:1;stroke:none;font-family:Bitstream Vera Sans"
       x="-33.13356"
       y="94.006851"
       id="text3766"
       sodipodi:linespacing="125%"
       transform="translate(0,902.36218)"><tspan
         sodipodi:role="line"
         id="tspan3768"
         x="-33.13356"
         y="94.006851" /></text>
    <path
       style="fill:#000000;fill-opacity:0.30593607;fill-rule:evenodd;stroke:none"
       d="M 90 0.4375 L 90 142 L 160 125.125 L 160 113 C 159.56528 113.32137 159.0333 113.65491 158.375 113.96875 C 157.09459 114.57595 155.63822 114.88575 153.96875 114.90625 C 151.82016 114.93225 150.01904 114.46445 148.5625 113.53125 C 146.87947 112.44385 146.02506 110.88755 146 108.84375 C 145.992 108.16995 146.03647 107.59735 146.1875 107.09375 C 146.41051 106.34975 146.78715 105.97485 147.28125 105.96875 C 147.96252 105.95875 148.3026 106.34775 148.3125 107.15625 C 148.3155 107.37335 148.2972 107.6977 148.25 108.125 C 148.2028 108.5524 148.1849 108.87665 148.1875 109.09375 C 148.2015 110.23925 148.71353 111.20235 149.71875 111.96875 C 150.61808 112.64655 151.64503 113.0023 152.84375 113.0625 C 153.11346 113.0745 153.39555 113.0665 153.6875 113.0625 C 154.65326 113.0505 155.65687 112.9648 156.6875 112.75 C 158.09905 112.4557 158.93929 112.0197 159.1875 111.5 C 159.28965 111.2817 159.34697 111.04335 159.34375 110.78125 C 159.33775 110.29475 158.89694 109.25545 158.03125 107.65625 C 157.158 106.04965 156.69704 104.87225 156.6875 104.09375 C 156.6785 103.38995 156.86689 103.03555 157.21875 103.03125 C 157.29365 103.03035 157.346 103.0325 157.40625 103.0625 C 157.6088 103.704 158.35611 105.10035 159.625 107.21875 C 159.7666 107.45681 159.87647 107.65554 160 107.875 L 160 101.96875 C 159.86585 102.11176 159.72016 102.24347 159.5625 102.375 C 159.38301 102.392 159.23469 102.40425 159.0625 102.40625 C 157.31068 102.42725 155.7561 101.7866 154.4375 100.5 C 153.614 100.51 152.92856 100.1741 152.34375 99.5 C 151.78927 98.8553 151.47902 98.11979 151.46875 97.28125 C 151.45535 96.18834 151.84135 95.25576 152.625 94.4375 C 153.40109 93.61186 154.34449 93.16965 155.4375 93.15625 C 156.94228 93.13785 158.26141 93.71349 159.40625 94.875 C 159.62628 95.098236 159.82157 95.326307 160 95.5625 L 160 91.4375 L 153.625 91 C 153.5426 90.994 153.48166 90.75411 153.46875 90.3125 C 153.46785 90.2376 153.47575 90.20987 153.46875 90.1875 L 154.5625 89.34375 C 153.96677 88.99913 153.39927 88.49754 152.875 87.875 C 152.2672 87.15616 151.97582 86.51396 151.96875 85.9375 C 151.96275 85.4434 152.17904 85.08003 152.625 84.8125 C 152.81089 84.7054 153.20971 84.53871 153.84375 84.34375 C 154.29129 84.2035 154.53336 84.0472 154.53125 83.875 C 154.53117 83.868 154.13789 83.32804 153.40625 82.28125 C 152.66706 81.22708 152.32022 80.41011 152.3125 79.78125 C 152.2973 78.53851 153.17071 77.89665 154.9375 77.875 C 155.14712 77.872 156.39345 77.98481 158.6875 78.21875 C 159.19033 78.270354 159.60456 78.336484 160 78.40625 L 160 76.25 L 153.4375 75.8125 C 153.3551 75.8065 153.29416 75.59787 153.28125 75.15625 C 153.28034 75.08135 153.28825 75.02237 153.28125 75 L 154.375 74.15625 C 153.77926 73.81164 153.21177 73.31003 152.6875 72.6875 C 152.0797 71.96866 151.78832 71.32645 151.78125 70.75 C 151.77525 70.2559 151.99153 69.89253 152.4375 69.625 C 152.62338 69.5179 153.02221 69.35122 153.65625 69.15625 C 154.10379 69.01601 154.34587 68.8597 154.34375 68.6875 C 154.34367 68.6805 153.98164 68.17178 153.25 67.125 C 152.51082 66.07083 152.13271 65.22262 152.125 64.59375 C 152.1098 63.35102 152.98322 62.70916 154.75 62.6875 C 154.95963 62.6845 156.20594 62.7973 158.5 63.03125 C 159.0749 63.090251 159.56548 63.167258 160 63.25 L 160 60.09375 C 159.93666 60.150049 159.88557 60.198997 159.8125 60.25 C 159.32992 60.58536 158.72617 60.74111 158 60.75 C 157.46846 60.757 156.87322 60.7046 156.25 60.5625 L 152.25 59.65625 C 152.2189 59.55935 152.1886 59.46485 152.1875 59.375 C 152.1855 59.21031 152.30951 58.98484 152.53125 58.75 C 152.70134 58.5757 152.88485 58.4169 153.0625 58.25 C 153.88147 58.47957 154.68845 58.70035 155.5 58.9375 C 156.58163 59.21626 157.39848 59.3816 157.9375 59.375 C 158.72359 59.365 159.0998 59.08786 159.09375 58.59375 C 159.08675 58.00233 158.31353 57.17397 156.75 56.0625 C 155.75308 55.3634 154.68551 54.69398 153.5625 54.09375 C 153.44857 53.96038 153.37674 53.82975 153.375 53.6875 C 153.373 53.50035 153.50525 53.31521 153.75 53.125 C 153.95797 52.9877 154.17452 52.85598 154.375 52.71875 C 156.2588 53.69152 157.53131 54.16506 158.25 54.15625 C 158.54197 54.15225 158.73116 54.11456 158.8125 54.03125 C 158.8643 53.98575 159.04138 53.70128 159.3125 53.21875 C 159.52503 52.84177 159.73537 52.65874 159.9375 52.65625 C 159.95838 52.655962 159.97895 52.653898 160 52.65625 L 160 50.53125 C 159.6322 50.78525 159.00226 50.926757 158.125 50.9375 C 157.58598 50.9445 156.67236 50.85131 155.375 50.6875 C 154.07757 50.51621 153.20538 50.43153 152.71875 50.4375 C 152.56154 50.4395 152.41583 50.45155 152.28125 50.46875 C 152.44556 49.82281 152.75161 49.31011 153.21875 48.9375 C 153.27865 48.93677 153.38264 48.95565 153.5625 48.96875 C 153.71231 48.97375 153.84767 48.96975 153.9375 48.96875 C 154.15461 48.96575 154.33538 48.92642 154.46875 48.8125 C 153.07167 47.84127 152.2019 47.20214 151.90625 46.90625 C 151.08763 46.09266 150.70053 45.15683 150.6875 44.09375 C 150.6726 42.87348 151.24851 41.94143 152.46875 41.3125 C 153.41366 40.82173 154.57498 40.5792 155.9375 40.5625 C 157.3627 40.545064 158.72172 40.76039 160 41.21875 L 160 38.40625 C 159.70341 38.613288 159.29691 38.712433 158.78125 38.71875 C 157.96524 38.72875 156.88737 38.5021 155.59375 38.03125 C 154.01427 37.4516 152.9953 37.12253 152.5 37.03125 C 152.5869 36.78311 152.85321 36.43372 153.3125 36.03125 C 153.80707 36.06255 154.57186 36.28859 155.625 36.6875 C 156.61797 37.06469 157.39099 37.25671 157.9375 37.25 C 158.46155 37.244 158.72544 36.95275 158.71875 36.40625 C 158.71375 35.9945 158.59998 35.43311 158.34375 34.6875 C 158.12708 34.11362 157.8967 33.54274 157.6875 32.96875 C 157.86544 32.82432 158.06415 32.75266 158.28125 32.75 C 158.54328 32.747 158.86404 32.83474 159.21875 33.0625 C 159.54514 33.593446 159.78902 34.109646 160 34.59375 L 160 29.375 C 159.65066 29.618211 159.17877 29.80444 158.5625 29.9375 C 157.85312 30.09594 156.76617 30.20132 155.34375 30.21875 C 154.68495 30.22675 154.11835 30.19495 153.59375 30.15625 C 153.47644 30.35985 153.40287 30.598 153.40625 30.875 C 153.40925 31.152 153.485 31.588 153.65625 32.125 C 153.82007 32.66209 153.90296 33.04299 153.90625 33.3125 C 153.91325 33.89644 153.56024 34.22847 152.8125 34.3125 C 152.53658 33.79175 152.30033 33.0646 152.09375 32.09375 C 151.84747 30.93621 151.63945 30.16141 151.5 29.78125 C 151.05483 29.50219 150.19583 29.24589 148.875 29 C 147.67416 28.76763 146.7951 28.39376 146.25 27.90625 C 146.246 27.6068 146.33875 27.36208 146.53125 27.1875 C 146.61275 27.1116 146.82297 27.00416 147.1875 26.8125 L 147.40625 26.78125 C 147.93013 26.75985 148.58397 26.89731 149.34375 27.1875 C 150.32934 27.57227 150.96349 27.78698 151.21875 27.84375 C 151.23135 27.64892 151.22175 27.43456 151.21875 27.1875 C 151.21575 26.94046 151.18475 26.5801 151.15625 26.09375 C 151.12785 25.59993 151.128 25.21581 151.125 24.96875 C 151.117 24.35488 151.15899 23.85083 151.28125 23.4375 C 151.77636 23.5138 152.10388 24.01084 152.25 24.9375 C 152.43696 26.14071 152.68785 26.95204 153 27.375 C 153.62435 28.22094 154.7931 28.64592 156.5 28.625 C 157.63046 28.6112 158.48788 28.53176 159.0625 28.375 C 159.24163 28.3279 159.31424 28.20475 159.3125 28.0625 C 159.3075 27.68819 158.87073 27.0512 157.96875 26.15625 C 157.29402 25.47567 156.66702 24.91809 156.0625 24.46875 C 156.1642 24.21293 156.36558 24.09772 156.6875 24.09375 C 156.7998 24.09275 156.96244 24.0903 157.1875 24.125 C 157.41255 24.1596 157.57521 24.1889 157.6875 24.1875 C 158.72481 24.971072 159.50232 25.691676 160 26.375 L 160 20.84375 C 159.58782 21.826663 158.65759 22.325743 157.1875 22.34375 C 156.48379 22.35275 155.53824 22.24911 154.375 22.03125 C 153.20418 21.80599 152.56478 21.68595 152.4375 21.6875 C 152.3851 21.68816 152.32321 21.7188 152.21875 21.75 C 152.10684 21.7813 152.02117 21.78065 151.96875 21.78125 C 151.70674 21.78425 151.47144 21.68226 151.28125 21.4375 C 151.1138 21.21493 151.03464 20.9645 151.03125 20.6875 C 151.02525 20.20837 151.31354 19.94438 151.875 19.9375 C 152.46644 19.9305 153.31191 20.09846 154.46875 20.40625 C 155.61812 20.71414 156.50982 20.8509 157.09375 20.84375 C 158.10442 20.83135 158.57617 20.27173 158.5625 19.15625 C 158.5495 18.09318 157.98321 16.8445 156.8125 15.40625 C 156.26563 15.38305 155.6751 15.3671 155.03125 15.375 C 154.47727 15.382 153.63861 15.43407 152.53125 15.5 C 151.41643 15.5661 150.57028 15.58714 150.03125 15.59375 C 150.55699 14.50162 151.60526 13.95613 153.125 13.9375 C 156.09422 13.901104 158.36562 14.053406 160 14.40625 L 160 0.4375 L 90 0.4375 z M 158.6875 15.59375 C 159.33384 16.466333 159.75449 17.279759 160 18.0625 L 160 15.84375 C 159.58916 15.732491 159.15634 15.664755 158.6875 15.59375 z M 150 32.375 C 150.27948 32.57374 150.4343 32.80048 150.4375 33.0625 C 150.4405 33.30956 150.30568 33.537 150.03125 33.75 C 150.06275 33.88441 150.24519 34.18041 150.625 34.625 C 150.9895 35.03984 151.18513 35.3366 151.1875 35.53125 C 151.1925 35.943 150.74961 36.17642 149.84375 36.1875 C 148.9903 36.198 148.49794 35.77331 148.375 34.90625 C 148.53347 34.39516 148.67791 33.86242 148.84375 33.34375 C 149.08394 32.77925 149.47688 32.45628 150 32.375 z M 156 42.21875 C 154.98934 42.23115 154.22712 42.32947 153.75 42.5 C 152.94477 42.77942 152.55279 43.3002 152.5625 44.09375 C 152.5766 45.23917 153.24332 46.23296 154.59375 47.0625 C 155.31795 47.50288 156.58535 48.03424 158.375 48.65625 C 159.12878 48.919568 159.66728 49.141027 160 49.34375 L 160 43.5625 C 159.70098 43.327046 159.4058 43.024792 159.09375 42.59375 C 158.23709 42.34218 157.21281 42.20391 156 42.21875 z M 160 54.9375 C 159.61731 55.145997 159.1474 55.371382 158.53125 55.5625 C 158.97124 56.02882 159.43509 56.47866 159.875 56.9375 C 159.92516 56.998283 159.95479 57.065204 160 57.125 L 160 54.9375 z M 154.5625 64.0625 C 153.98605 64.0695 153.71655 64.16414 153.71875 64.34375 C 153.72475 64.84535 153.99194 65.48448 154.5625 66.21875 C 155.23195 67.07911 156.41922 68.04654 158.125 69.15625 C 158.993 69.72216 159.43503 70.11037 159.4375 70.3125 C 159.4415 70.61196 159.26276 70.88853 158.90625 71.125 C 158.58699 71.34606 158.27439 71.46463 157.9375 71.46875 C 157.54072 71.47375 156.92984 71.38014 156.15625 71.1875 C 155.3751 70.98743 154.80304 70.87014 154.40625 70.875 C 154.17418 70.878 153.96019 70.90665 153.78125 70.96875 C 154.5702 71.80517 155.73579 72.62234 157.25 73.375 C 157.69487 73.590663 158.89325 74.068298 160 74.53125 L 160 65.0625 C 159.79965 64.998278 159.62953 64.940967 159.375 64.84375 C 158.8409 64.64064 158.04282 64.44819 157 64.28125 C 156.0023 64.12876 155.18388 64.05491 154.5625 64.0625 z M 154.75 79.25 C 154.17356 79.257 153.90405 79.35163 153.90625 79.53125 C 153.91225 80.03286 154.17945 80.64074 154.75 81.375 C 155.41945 82.23536 156.60672 83.23404 158.3125 84.34375 C 159.1805 84.90967 159.62252 85.29787 159.625 85.5 C 159.629 85.79946 159.45026 86.07603 159.09375 86.3125 C 158.77449 86.53356 158.46188 86.62089 158.125 86.625 C 157.72822 86.63 157.11734 86.53648 156.34375 86.34375 C 155.5626 86.14367 154.99054 86.05765 154.59375 86.0625 C 154.36168 86.0655 154.1477 86.09415 153.96875 86.15625 C 154.75771 86.99268 155.92329 87.77859 157.4375 88.53125 C 157.85178 88.732086 159.01171 89.209705 160 89.625 L 160 80.1875 C 159.84811 80.135546 159.74105 80.099447 159.5625 80.03125 C 159.0284 79.82815 158.23032 79.63569 157.1875 79.46875 C 156.1898 79.31626 155.37139 79.24241 154.75 79.25 z M 155.28125 94.78125 C 154.71978 94.78825 154.24456 95.01237 153.875 95.40625 C 153.49797 95.80023 153.30563 96.28219 153.3125 96.84375 C 153.3175 97.25542 153.45296 97.60252 153.71875 97.90625 C 154.08293 97.68475 154.41181 97.56626 154.71875 97.5625 C 155.16795 97.5575 155.63066 97.82525 156.09375 98.34375 C 156.49649 98.82555 156.90985 99.30695 157.3125 99.78125 C 157.82033 100.28415 158.36891 100.50565 158.9375 100.46875 L 159.125 100.4375 C 159.1119 99.3668 159.04868 98.5777 158.9375 98.0625 C 158.75486 97.21113 158.41323 96.54005 157.875 96 C 157.06396 95.19383 156.20209 94.76998 155.28125 94.78125 z "
       transform="translate(0,902.36218)"
       id="path3009-1" />
    <path
       style="fill:#000000;fill-opacity:0.30593607;fill-rule:evenodd;stroke:none"
       d="M 180 0.4375 L 180 142 L 250 125.125 L 250 114.6875 C 249.80854 114.76896 249.61846 114.80996 249.40625 114.8125 C 248.84478 114.8225 247.97107 114.5544 246.78125 114 C 245.19984 113.2631 244.32048 112.84625 244.125 112.78125 C 242.20042 112.14585 240.51618 111.8576 239.09375 111.875 C 238.37507 111.885 237.66317 111.9664 236.96875 112.125 C 236.75741 111.9854 236.65846 111.8047 236.65625 111.625 C 236.65425 111.4977 236.69515 111.35245 236.8125 111.15625 C 237.05839 111.05625 237.35262 110.86695 237.65625 110.59375 C 236.81356 110.25965 236.34789 110.07495 236.25 110.03125 C 235.64771 109.76165 235.22024 109.5019 235 109.25 C 235.51415 108.4351 236.46086 107.88745 237.8125 107.59375 C 238.94121 107.43775 240.0589 107.25735 241.1875 107.09375 C 242.09883 106.91785 243.33889 106.62725 244.90625 106.21875 C 243.96212 105.54895 242.31729 104.7826 240 103.875 C 237.78051 103.0037 236.18545 102.1564 235.1875 101.375 C 235.1261 101.2559 235.09515 101.14355 235.09375 101.03125 C 235.09075 100.75425 235.28646 100.48565 235.6875 100.21875 C 236.05142 99.97465 236.38806 99.84745 236.6875 99.84375 C 236.6805 99.84385 237.30971 99.96165 238.5625 100.15625 C 243.60356 100.92555 247.28046 101.2784 249.59375 101.25 C 249.73517 101.24745 249.86104 101.22253 250 101.21875 L 250 97.4375 C 249.56371 97.888327 249.02851 98.148289 248.375 98.15625 C 247.66379 98.16625 247.08104 97.81667 246.59375 97.15625 C 246.1522 96.56261 245.91534 95.89739 245.90625 95.15625 C 245.89925 94.61724 245.99975 94.11568 246.21875 93.65625 C 245.01202 92.94475 243.5598 92.55126 241.84375 92.4375 C 241.96331 93.02755 242.38193 93.95462 243.09375 95.21875 C 243.72935 96.37155 244.07091 97.31438 244.125 98.0625 C 243.72688 98.569 243.19006 98.83565 242.53125 98.84375 C 242.36655 98.84375 242.22027 98.82425 242.0625 98.78125 C 241.82391 98.25255 241.29617 97.02362 240.53125 95.09375 C 239.70444 92.99989 239.31452 91.85222 239.3125 91.6875 C 239.3045 90.99876 239.67388 90.66561 240.4375 90.65625 C 241.26101 90.64615 242.42669 90.86809 243.9375 91.34375 C 245.5084 91.83366 246.66594 92.09702 247.4375 92.125 C 247.72708 91.92677 247.89653 91.66623 247.9375 91.34375 C 247.9842 90.87897 248.0591 90.58937 248.125 90.46875 C 248.38537 90.33079 248.62795 90.25304 248.875 90.25 C 249.18579 90.24639 249.57653 90.436861 250 90.78125 L 250 87.5625 C 249.78263 87.787488 249.43091 87.950415 248.9375 88.03125 C 248.35402 88.07575 247.50574 88.15414 246.40625 88.25 C 245.26987 88.39121 244.42899 88.46196 243.875 88.46875 C 242.92423 88.48045 242.08045 88.36306 241.34375 88.125 C 241.60317 87.29819 241.87177 86.8785 242.15625 86.875 C 242.26107 86.874 242.42251 86.87875 242.625 86.90625 C 242.8275 86.93365 242.98895 86.96995 243.09375 86.96875 C 243.34081 86.96575 243.53961 86.87024 243.6875 86.71875 C 242.63406 85.68341 242.04473 85.12017 241.96875 85.03125 C 241.34571 84.29012 241.03952 83.58003 241.03125 82.90625 C 241.02325 82.25494 241.27091 81.61985 241.75 81 C 241.7943 80.947 242.27822 80.45457 243.1875 79.5 C 243.73184 79.92762 243.99423 80.37211 244 80.84375 C 244.002 81.01594 243.97951 81.17684 243.90625 81.3125 C 243.60152 81.49595 243.3292 81.75393 243.09375 82.09375 C 242.84372 82.4637 242.71472 82.82686 242.71875 83.15625 C 242.73135 84.18189 243.72754 85.00846 245.75 85.6875 C 247.30347 86.215316 248.72261 86.494316 250 86.5 L 250 1.25 C 250 0.799875 250 0.87155267 250 0.4375 L 180 0.4375 z M 240.5625 44.53125 C 241.05762 44.60755 241.38514 45.1046 241.53125 46.03125 C 241.71821 47.23446 241.9691 48.04579 242.28125 48.46875 C 242.9056 49.31469 244.07434 49.73966 245.78125 49.71875 C 246.9117 49.70495 247.76913 49.62551 248.34375 49.46875 C 248.52287 49.42165 248.5955 49.32975 248.59375 49.1875 C 248.58875 48.81319 248.15198 48.17621 247.25 47.28125 C 246.57527 46.60068 245.91701 46.01185 245.3125 45.5625 C 245.4142 45.3067 245.64683 45.19145 245.96875 45.1875 C 246.08105 45.1865 246.2437 45.2153 246.46875 45.25 C 246.6938 45.2846 246.85646 45.28265 246.96875 45.28125 C 248.94881 46.77698 249.9549 48.0883 249.96875 49.21875 C 249.97985 50.12461 249.24632 50.75293 247.8125 51.0625 C 247.10313 51.22095 246.04742 51.29508 244.625 51.3125 C 243.9662 51.3205 243.36835 51.31995 242.84375 51.28125 C 242.72644 51.48485 242.68411 51.72301 242.6875 52 C 242.6905 52.277 242.76626 52.68174 242.9375 53.21875 C 243.10132 53.75585 243.18421 54.13674 243.1875 54.40625 C 243.1945 54.99019 242.84149 55.35346 242.09375 55.4375 C 241.81783 54.91675 241.55033 54.15835 241.34375 53.1875 C 241.09747 52.02995 240.92069 51.25516 240.78125 50.875 C 240.33608 50.59593 239.44583 50.33964 238.125 50.09375 C 236.92416 49.86137 236.04509 49.48751 235.5 49 C 235.496 48.70055 235.58875 48.48709 235.78125 48.3125 C 235.86275 48.2366 236.10422 48.09792 236.46875 47.90625 L 236.6875 47.875 C 237.21137 47.8536 237.86522 47.99107 238.625 48.28125 C 239.6106 48.66603 240.21349 48.88074 240.46875 48.9375 C 240.48135 48.74269 240.503 48.52831 240.5 48.28125 C 240.497 48.03421 240.466 47.67385 240.4375 47.1875 C 240.409 46.69369 240.40925 46.30956 240.40625 46.0625 C 240.39825 45.44863 240.44025 44.94457 240.5625 44.53125 z M 246.0625 56.5 C 248.33212 59.01796 249.47441 61.31755 249.5 63.40625 C 249.5144 64.58162 249.2571 65.51452 248.71875 66.1875 C 248.13613 66.91345 247.27042 67.29847 246.125 67.3125 C 245.95281 67.3145 245.70461 67.29255 245.375 67.28125 C 245.03793 67.27035 244.7972 67.27905 244.625 67.28125 C 244.10096 67.28725 243.6977 67.34707 243.4375 67.5 C 243.31714 66.84258 242.85052 66.08476 242.03125 65.21875 C 241.15885 64.29349 240.65551 63.59482 240.5 63.125 C 240.24342 62.34944 240.10559 61.49701 240.09375 60.53125 C 240.08375 59.74519 240.21572 58.98688 240.46875 58.25 C 240.81591 57.24991 241.30116 56.72656 241.9375 56.71875 C 242.31931 56.71375 242.73402 56.90364 243.1875 57.25 C 244.45602 59.33846 245.09648 61.54673 245.125 63.875 C 245.13 64.30173 245.1019 64.73777 245.0625 65.1875 C 245.3367 65.56601 245.72335 65.7557 246.1875 65.75 C 246.66664 65.744 247.05655 65.51788 247.34375 65.125 C 247.60905 64.77732 247.72481 64.3691 247.71875 63.875 C 247.70975 63.17876 247.40598 62.08361 246.78125 60.59375 C 246.1565 59.1039 245.8203 58.0426 245.8125 57.40625 C 245.8085 57.03943 245.89312 56.7342 246.0625 56.5 z M 241.9375 58.34375 C 241.66729 58.90115 241.55425 59.51373 241.5625 60.1875 C 241.5705 60.80889 241.68239 61.46923 241.9375 62.125 C 242.22359 62.86277 242.61686 63.371 243.0625 63.6875 C 243.30418 63.85676 243.49025 63.93915 243.625 63.9375 C 243.87955 63.9345 244.00559 63.70668 244 63.25 C 243.991 62.55377 243.7445 61.69174 243.3125 60.65625 C 242.88052 59.62078 242.42287 58.84697 241.9375 58.34375 z M 247.75 68.6875 C 248.57198 69.16413 248.98661 69.93824 249 71.03125 C 249.004 71.35318 248.98825 71.85508 248.90625 72.5 C 248.82435 73.14495 248.77721 73.6081 248.78125 73.9375 C 248.78325 74.06477 248.77255 74.19282 248.78125 74.3125 C 248.55486 74.77951 248.02469 75.02062 247.15625 75.03125 C 247.25923 75.49422 247.66072 76.09588 248.34375 76.84375 C 248.38165 76.88065 248.89911 77.40945 249.9375 78.4375 C 249.9228 78.4602 249.82404 78.6698 249.65625 79.03125 C 249.53968 79.29475 249.43098 79.43566 249.28125 79.4375 C 248.00108 79.4532 246.06386 78.97155 243.46875 78 C 240.87366 77.02847 238.87752 76.54563 237.5 76.5625 C 236.99843 76.5685 236.50818 76.60633 236 76.6875 L 235.5625 76.28125 C 236.09439 75.69071 236.86434 75.38739 237.875 75.375 C 238.429 75.368 239.08551 75.46209 239.84375 75.625 C 240.48212 75.78191 241.1355 75.91318 241.78125 76.0625 L 245.5 76.84375 C 245.33215 75.97726 244.70254 74.93053 243.59375 73.65625 C 242.69131 72.72388 241.77754 71.78363 240.875 70.84375 C 240.872 70.58923 241.02163 70.35412 241.28125 70.15625 C 241.5116 70.01117 241.73094 69.86393 241.96875 69.71875 C 242.54503 69.69665 243.0851 69.96096 243.59375 70.53125 C 244.02023 71.11755 244.456 71.72613 244.875 72.3125 C 245.40037 73.02488 245.91847 73.46046 246.4375 73.65625 C 246.94251 72.70665 247.37472 71.05817 247.75 68.6875 z M 248.84375 93.1875 C 248.71987 93.46606 248.36132 93.68912 247.75 93.90625 C 247.61901 94.21485 247.558 94.5707 247.5625 94.9375 C 247.5728 95.77604 247.90407 96.16307 248.5625 96.125 L 248.75 96.125 C 249.1348 95.75336 249.32103 95.22754 249.3125 94.53125 C 249.3055 93.9548 249.13966 93.50585 248.84375 93.1875 z M 239.0625 101.75 C 239.5821 101.9907 240.59183 102.3446 242.125 102.8125 C 243.50034 103.2299 244.54012 103.64275 245.21875 104.03125 C 246.24433 104.62525 246.95151 105.39055 247.375 106.34375 C 246.28111 106.89625 244.97235 107.4241 243.40625 107.9375 C 242.03361 108.3511 240.6538 108.7664 239.28125 109.1875 C 240.14724 109.5887 241.4025 110.0086 243.0625 110.4375 C 245.03795 110.9449 246.34351 111.2976 246.9375 111.5 C 248.31252 111.96277 249.30996 112.48034 250 113.03125 L 250 102.28125 C 249.38937 102.36845 248.76559 102.42964 248.125 102.4375 C 247.17423 102.4495 245.71483 102.34665 243.75 102.09375 C 241.83018 101.84775 240.37051 101.7229 239.375 101.75 L 239.0625 101.75 z "
       transform="translate(0,902.36218)"
       id="path3009-1-0" />
    <path
       style="fill:#000000;fill-opacity:0.30593607;fill-rule:evenodd;stroke:none"
       d="M 270 0.4375 L 270 142 L 340 125.125 L 340 114.78125 C 339.77204 114.74833 338.89307 114.46211 337.21875 113.875 C 336.15092 113.4988 335.14264 113.2563 334.25 113.125 C 333.28234 112.9796 331.29863 112.8473 328.25 112.75 C 327.50849 112.729 326.93617 112.70385 326.53125 112.65625 C 325.57153 112.54835 325.06405 112.38795 325.03125 112.15625 C 324.98545 112.08225 324.96985 111.99615 324.96875 111.90625 C 324.96475 111.58435 325.28414 111.25155 325.96875 110.90625 C 326.16377 110.93425 326.846 110.9867 328 111.0625 L 332.03125 111.3125 C 334.59399 111.4757 336.51936 111.8372 337.84375 112.375 C 337.88585 112.1424 337.90955 111.86325 337.90625 111.59375 C 337.90125 111.14455 337.83299 110.4993 337.6875 109.625 C 337.53444 108.7433 337.44301 108.0741 337.4375 107.625 C 337.4218 106.3448 337.84927 105.44105 338.71875 104.90625 C 338.83023 104.83825 338.94272 104.814 339.0625 104.8125 C 339.36196 104.8125 339.63241 104.91215 339.875 105.15625 C 339.93031 105.2119 339.9571 105.28483 340 105.34375 L 340 101.84375 C 339.74425 102.54445 339.31171 103.13543 338.6875 103.65625 C 338.50802 103.67325 338.32844 103.6855 338.15625 103.6875 C 336.40443 103.7095 334.8811 103.0992 333.5625 101.8125 C 332.739 101.8225 332.02231 101.4868 331.4375 100.8125 C 330.88988 100.17588 330.61056 99.419407 330.59375 98.59375 C 330.58035 97.50072 330.96635 96.53701 331.75 95.71875 C 332.52608 94.89318 333.46949 94.48214 334.5625 94.46875 C 336.06728 94.45035 337.38641 94.99479 338.53125 96.15625 C 339.24678 96.882225 339.72444 97.699547 340 98.5625 L 340 85.53125 C 339.53807 85.841645 339.09692 86.051845 338.75 86.125 C 339.34695 87.18093 339.67118 88.35492 339.6875 89.6875 C 339.6986 90.59336 339.43867 91.32938 338.90625 91.875 C 338.37374 92.41314 337.66334 92.67631 336.75 92.6875 C 335.49978 92.7028 334.20444 92.23085 332.875 91.28125 C 331.4548 90.25787 330.73344 89.16658 330.71875 87.96875 C 330.71475 87.62439 330.81455 87.11535 331.03125 86.46875 C 331.24787 85.81469 331.34789 85.33689 331.34375 85 C 331.34175 84.85028 331.32067 84.6437 331.25 84.375 C 331.1717 84.09893 331.12684 83.86849 331.125 83.71875 C 331.113 82.73804 331.49517 82.25964 332.28125 82.25 C 332.82775 82.243 333.8607 82.61486 335.375 83.375 C 336.88921 84.12768 337.98248 84.50827 338.65625 84.5 C 339.05105 84.495267 339.50978 84.317492 340 84 L 340 61.875 C 339.68283 62.310599 338.91269 62.723412 337.71875 63.09375 C 338.15874 63.56007 338.6226 64.00993 339.0625 64.46875 C 339.56413 65.07659 339.80627 65.64718 339.8125 66.15625 C 339.8215 66.8525 339.55681 67.39257 339 67.78125 C 338.51742 68.11662 337.91368 68.30361 337.1875 68.3125 C 336.65596 68.3195 336.06072 68.23586 335.4375 68.09375 L 331.4375 67.1875 C 331.4064 67.0906 331.3761 66.99609 331.375 66.90625 C 331.373 66.74155 331.49701 66.54733 331.71875 66.3125 C 331.88884 66.1382 332.07235 65.94815 332.25 65.78125 C 333.06897 66.01082 333.87595 66.26286 334.6875 66.5 C 335.76913 66.77877 336.58598 66.91286 337.125 66.90625 C 337.91107 66.89625 338.28731 66.61911 338.28125 66.125 C 338.27425 65.53358 337.50103 64.70521 335.9375 63.59375 C 334.94058 62.89465 333.87299 62.22523 332.75 61.625 C 332.63606 61.49164 332.56425 61.361 332.5625 61.21875 C 332.5605 61.03159 332.69276 60.84645 332.9375 60.65625 C 333.14549 60.51894 333.36202 60.38725 333.5625 60.25 C 335.4463 61.22278 336.7188 61.69631 337.4375 61.6875 C 337.72948 61.6835 337.91865 61.64581 338 61.5625 C 338.0518 61.517 338.22887 61.26378 338.5 60.78125 C 338.71252 60.40428 338.92287 60.18999 339.125 60.1875 C 339.34211 60.1845 339.57693 60.34337 339.8125 60.625 C 339.90534 60.732549 339.94221 60.837173 340 60.9375 L 340 53.5625 C 339.77048 54.181294 339.0726 54.629932 337.9375 54.875 C 337.22812 55.03345 336.17242 55.10759 334.75 55.125 C 334.0912 55.133 333.49335 55.13245 332.96875 55.09375 C 332.85144 55.29735 332.80912 55.53551 332.8125 55.8125 C 332.8155 56.0895 332.89125 56.49425 333.0625 57.03125 C 333.22632 57.56836 333.30921 57.98049 333.3125 58.25 C 333.3195 58.83395 332.96649 59.16597 332.21875 59.25 C 331.94283 58.72926 331.70657 57.97085 331.5 57 C 331.25371 55.84245 331.0457 55.06766 330.90625 54.6875 C 330.46108 54.40843 329.57083 54.15214 328.25 53.90625 C 327.04916 53.67388 326.20135 53.30001 325.65625 52.8125 C 325.65225 52.51306 325.74499 52.29958 325.9375 52.125 C 326.019 52.0491 326.22923 51.9104 326.59375 51.71875 L 326.8125 51.6875 C 327.33638 51.6661 327.99022 51.80356 328.75 52.09375 C 329.73559 52.47853 330.33849 52.72448 330.59375 52.78125 C 330.60635 52.58643 330.628 52.34082 330.625 52.09375 C 330.622 51.84671 330.591 51.48635 330.5625 51 C 330.534 50.50618 330.53425 50.15331 330.53125 49.90625 C 330.52325 49.29237 330.56524 48.75707 330.6875 48.34375 C 331.18262 48.42005 331.51012 48.9171 331.65625 49.84375 C 331.8432 51.04696 332.09409 51.85829 332.40625 52.28125 C 333.0306 53.12719 334.19936 53.55216 335.90625 53.53125 C 337.03671 53.51745 337.89413 53.438 338.46875 53.28125 C 338.64788 53.23415 338.72049 53.14225 338.71875 53 C 338.71375 52.62568 338.27699 51.98871 337.375 51.09375 C 336.70028 50.41317 336.04202 49.8556 335.4375 49.40625 C 335.53921 49.15044 335.77183 49.00395 336.09375 49 C 336.20605 48.999 336.3687 49.0277 336.59375 49.0625 C 336.8188 49.0973 336.98146 49.09515 337.09375 49.09375 C 338.76057 50.352855 339.72651 51.49974 340 52.5 L 340 0.4375 L 270 0.4375 z M 334.25 69.96875 C 335.75478 69.95035 337.07391 70.52599 338.21875 71.6875 C 339.3636 72.84903 339.95023 74.17525 339.96875 75.6875 C 339.98625 77.11741 339.44971 78.29081 338.375 79.1875 C 338.19552 79.2047 338.01593 79.21655 337.84375 79.21875 C 336.09193 79.24025 334.5686 78.59918 333.25 77.3125 C 332.4265 77.3226 331.70981 76.9867 331.125 76.3125 C 330.57052 75.66788 330.29153 74.93223 330.28125 74.09375 C 330.26785 73.00074 330.65385 72.03701 331.4375 71.21875 C 332.21358 70.39311 333.15699 69.98215 334.25 69.96875 z M 334.09375 71.59375 C 333.53227 71.60075 333.05705 71.82488 332.6875 72.21875 C 332.31047 72.61273 332.11813 73.06353 332.125 73.625 C 332.13 74.03676 332.26547 74.41503 332.53125 74.71875 C 332.89543 74.49715 333.22431 74.37877 333.53125 74.375 C 333.98044 74.37 334.44317 74.63781 334.90625 75.15625 C 335.309 75.63801 335.72235 76.08824 336.125 76.5625 C 336.63283 77.06544 337.15015 77.31816 337.71875 77.28125 L 337.9375 77.25 C 337.9244 76.17944 337.86117 75.39028 337.75 74.875 C 337.56736 74.02366 337.22574 73.32125 336.6875 72.78125 C 335.87647 71.97505 335.01458 71.58248 334.09375 71.59375 z M 332.96875 85.6875 C 332.4189 86.03118 332.14342 86.73316 332.15625 87.78125 C 332.16525 88.54487 332.7858 89.25733 334 89.96875 C 335.10867 90.62156 336.06777 90.94777 336.90625 90.9375 C 337.79713 90.9266 338.25936 90.54488 338.25 89.78125 C 338.242 89.12245 338.01937 88.27097 337.625 87.25 C 337.43936 86.7656 336.764 86.37853 335.5625 86.09375 C 335.4198 86.05805 334.55169 85.93767 332.96875 85.6875 z M 334.375 96.09375 C 333.81352 96.10075 333.3383 96.29365 332.96875 96.6875 C 332.59172 97.08155 332.43063 97.5635 332.4375 98.125 C 332.4425 98.5367 332.57797 98.8838 332.84375 99.1875 C 333.20793 98.9659 333.53682 98.84755 333.84375 98.84375 C 334.29295 98.83375 334.75566 99.1065 335.21875 99.625 C 335.62149 100.1067 336.0036 100.5882 336.40625 101.0625 C 336.91408 101.5654 337.46265 101.787 338.03125 101.75 L 338.25 101.75 C 338.2369 100.6795 338.17367 99.8903 338.0625 99.375 C 337.87986 98.5237 337.50699 97.82118 336.96875 97.28125 C 336.15772 96.47502 335.29583 96.08257 334.375 96.09375 z M 340 106.59375 C 339.94146 106.62909 339.85969 106.6422 339.78125 106.65625 C 339.20589 106.75325 338.90477 106.82835 338.875 106.84375 C 338.8046 107.21145 338.77643 107.57195 338.78125 107.96875 C 338.79275 108.90445 339.03617 110.04695 339.53125 111.34375 C 339.7332 111.87589 339.85848 112.17721 340 112.5625 L 340 106.59375 z "
       transform="translate(0,902.36218)"
       id="path3009-1-9" />
    <text
       xml:space="preserve"
       style="font-size:40px;font-style:normal;font-variant:normal;font-weight:normal;font-stretch:normal;line-height:125%;letter-spacing:0px;word-spacing:0px;fill:#000000;fill-opacity:1;stroke:none;font-family:Arial;-inkscape-font-specification:Arial"
       x="217.94386"
       y="111.49658"
       id="text3054"
       sodipodi:linespacing="125%"
       transform="translate(0,902.36218)"><tspan
         sodipodi:role="line"
         id="tspan3056"
         x="217.94386"
         y="111.49658" /></text>
    <text
       xml:space="preserve"
       style="font-size:40px;font-style:normal;font-variant:normal;font-weight:normal;font-stretch:normal;line-height:125%;letter-spacing:0px;word-spacing:0px;fill:#000000;fill-opacity:1;stroke:none;font-family:Arial;-inkscape-font-specification:Arial"
       x="315.29214"
       y="116.2187"
       id="text3079"
       sodipodi:linespacing="125%"
       transform="translate(0,902.36218)"><tspan
         sodipodi:role="line"
         id="tspan3081"
         x="315.29214"
         y="116.2187" /></text>
    <text
       xml:space="preserve"
       style="font-size:25px;font-style:normal;font-weight:normal;line-height:125%;letter-spacing:0px;word-spacing:0px;fill:#000000;fill-opacity:1;stroke:none;font-family:Bitstream Vera Sans"
       x="-1017.2615"
       y="349.14578"
       id="text3029-6-8-5-3"
       sodipodi:linespacing="125%"
       transform="matrix(0.01888054,-0.99982175,0.99982175,0.01888054,0,0)"><tspan
         sodipodi:role="line"
         id="tspan3031-1-7-1-9"
         x="-1017.2615"
         y="349.14578"
         style="font-size:23px;font-style:normal;font-variant:normal;font-weight:bold;font-stretch:normal;font-family:Wargames;-inkscape-font-specification:Wargames Bold" /></text>
  </g>
</svg>
