<?xml version="1.0" encoding="UTF-8" standalone="no"?>
<!-- Created with Inkscape (http://www.inkscape.org/) -->

<svg
   xmlns:dc="http://purl.org/dc/elements/1.1/"
   xmlns:cc="http://creativecommons.org/ns#"
   xmlns:rdf="http://www.w3.org/1999/02/22-rdf-syntax-ns#"
   xmlns:svg="http://www.w3.org/2000/svg"
   xmlns="http://www.w3.org/2000/svg"
   xmlns:sodipodi="http://sodipodi.sourceforge.net/DTD/sodipodi-0.dtd"
   xmlns:inkscape="http://www.inkscape.org/namespaces/inkscape"
   width="150"
   height="150"
   id="svg3849"
   version="1.1"
   inkscape:version="0.48.1 r9760"
   sodipodi:docname="New document 6">
  <defs
     id="defs3851" />
  <sodipodi:namedview
     id="base"
     pagecolor="#ffffff"
     bordercolor="#666666"
     borderopacity="1.0"
     inkscape:pageopacity="0.0"
     inkscape:pageshadow="2"
     inkscape:zoom="1.979899"
     inkscape:cx="102.61598"
     inkscape:cy="80.555427"
     inkscape:document-units="px"
     inkscape:current-layer="layer1"
     showgrid="false"
     inkscape:window-width="1366"
     inkscape:window-height="744"
     inkscape:window-x="0"
     inkscape:window-y="24"
     inkscape:window-maximized="1" />
  <metadata
     id="metadata3854">
    <rdf:RDF>
      <cc:Work
         rdf:about="">
        <dc:format>image/svg+xml</dc:format>
        <dc:type
           rdf:resource="http://purl.org/dc/dcmitype/StillImage" />
        <dc:title></dc:title>
      </cc:Work>
    </rdf:RDF>
  </metadata>
  <g
     inkscape:label="Layer 1"
     inkscape:groupmode="layer"
     id="layer1"
     transform="translate(0,-902.36218)">
    <path
       sodipodi:type="arc"
       style="opacity:1;fill:#39d02f;stroke:none;fill-opacity:1"
       id="path3857"
       sodipodi:cx="76.771591"
       sodipodi:cy="75.248711"
       sodipodi:rx="72.73098"
       sodipodi:ry="72.73098"
       d="m 149.50257,75.248711 a 72.73098,72.73098 0 1 1 -145.4619587,0 72.73098,72.73098 0 1 1 145.4619587,0 z"
       transform="matrix(0.96245094,0,0,0.96245094,-3.888889,900.84761)" />
    <path
       sodipodi:type="arc"
       style="opacity:1;fill:#ffffff;stroke:none"
       id="path3857-7"
       sodipodi:cx="76.771591"
       sodipodi:cy="75.248711"
       sodipodi:rx="72.73098"
       sodipodi:ry="72.73098"
       d="m 149.50257,75.248711 a 72.73098,72.73098 0 1 1 -145.4619587,0 72.73098,72.73098 0 1 1 145.4619587,0 z"
       transform="matrix(0.89370444,0,0,0.89370444,1.6452556,905.76434)" />
    <path
       sodipodi:type="arc"
       style="opacity:1;fill:#39d02f;stroke:none;fill-opacity:1"
       id="path3857-7-2"
       sodipodi:cx="76.771591"
       sodipodi:cy="75.248711"
       sodipodi:rx="72.73098"
       sodipodi:ry="72.73098"
       d="m 149.50257,75.248711 a 72.73098,72.73098 0 1 1 -145.4619587,0 72.73098,72.73098 0 1 1 145.4619587,0 z"
       transform="matrix(0.89370444,0,0,0.89370444,9.6757121,911.87601)" />
    <path
       sodipodi:type="arc"
       style="opacity:1;fill:#ffffff;stroke:none"
       id="path3857-7-2-7"
       sodipodi:cx="76.771591"
       sodipodi:cy="75.248711"
       sodipodi:rx="72.73098"
       sodipodi:ry="72.73098"
       d="m 149.50257,75.248711 a 72.73098,72.73098 0 1 1 -145.4619587,0 72.73098,72.73098 0 1 1 145.4619587,0 z"
       transform="matrix(0.82495795,0,0,0.82495795,14.499173,915.98818)" />
    <path
       sodipodi:type="arc"
       style="opacity:1;fill:#39d02f;stroke:none;fill-opacity:1"
       id="path3857-7-2-7-2"
       sodipodi:cx="76.771591"
       sodipodi:cy="75.248711"
       sodipodi:rx="72.73098"
       sodipodi:ry="72.73098"
       d="m 149.50257,75.248711 a 72.73098,72.73098 0 1 1 -145.4619587,0 72.73098,72.73098 0 1 1 145.4619587,0 z"
       transform="matrix(0.82495795,0,0,0.82495795,15.96364,906.94758)" />
    <path
       style="fill:#ffffff;stroke:none;fill-opacity:1"
       d="m 71.002499,898.27846 c -41.42135,0 -74.9999995,33.57865 -74.9999995,75 0,41.42134 33.5786495,75.00004 74.9999995,75.00004 41.421351,0 75.000001,-33.5787 75.000001,-75.00004 0,-41.42135 -33.57865,-75 -75.000001,-75 z m 0,5 c 38.659931,0 70.000001,31.34007 70.000001,70 0,38.65994 -31.34007,70.00004 -70.000001,70.00004 -38.65993,0 -69.9999995,-31.3401 -69.9999995,-70.00004 0,-38.65993 31.3400695,-70 69.9999995,-70 z"
       id="path3857-8-5"
       inkscape:connector-curvature="0" />
    <text
       xml:space="preserve"
       style="font-size:40px;font-style:normal;font-weight:normal;line-height:125%;letter-spacing:0px;word-spacing:0px;fill:#576937;fill-opacity:1;stroke:none;font-family:Bitstream Vera Sans"
       x="45.45686"
       y="976.09564"
       id="text3931"
       sodipodi:linespacing="125%"><tspan
         sodipodi:role="line"
         id="tspan3933"
         x="45.45686"
         y="976.09564"><tspan
   style="font-size:64px;fill:#576937;fill-opacity:1"
   id="tspan3943">T</tspan>rading</tspan></text>
    <text
       xml:space="preserve"
       style="font-size:40px;font-style:normal;font-weight:normal;line-height:125%;letter-spacing:0px;word-spacing:0px;fill:#bedfbc;fill-opacity:1;stroke:none;font-family:Bitstream Vera Sans"
       x="80.812195"
       y="1008.9257"
       id="text3935"
       sodipodi:linespacing="125%"><tspan
         sodipodi:role="line"
         id="tspan3937"
         x="80.812195"
         y="1008.9257"><tspan
   style="font-size:64px;fill:#bedfbc;fill-opacity:1"
   id="tspan3939">S</tspan>ystem</tspan></text>
  </g>
</svg>
