<?xml version="1.0" encoding="UTF-8" standalone="no"?>
<!-- Created with Inkscape (http://www.inkscape.org/) -->

<svg
   xmlns:dc="http://purl.org/dc/elements/1.1/"
   xmlns:cc="http://creativecommons.org/ns#"
   xmlns:rdf="http://www.w3.org/1999/02/22-rdf-syntax-ns#"
   xmlns:svg="http://www.w3.org/2000/svg"
   xmlns="http://www.w3.org/2000/svg"
   xmlns:sodipodi="http://sodipodi.sourceforge.net/DTD/sodipodi-0.dtd"
   xmlns:inkscape="http://www.inkscape.org/namespaces/inkscape"
   width="150"
   height="150"
   id="svg3849"
   version="1.1"
   inkscape:version="0.48.1 r9760"
   sodipodi:docname="logo_2.svg"
   inkscape:export-filename="/home/pascal/Desktop/Design Test/logo.png"
   inkscape:export-xdpi="92.199272"
   inkscape:export-ydpi="92.199272">
  <defs
     id="defs3851">
    <filter
       inkscape:collect="always"
       id="filter4544">
      <feGaussianBlur
         inkscape:collect="always"
         stdDeviation="1.076923"
         id="feGaussianBlur4546" />
    </filter>
  </defs>
  <sodipodi:namedview
     id="base"
     pagecolor="#ffffff"
     bordercolor="#666666"
     borderopacity="1.0"
     inkscape:pageopacity="0.0"
     inkscape:pageshadow="2"
     inkscape:zoom="1.979899"
     inkscape:cx="102.61598"
     inkscape:cy="80.555427"
     inkscape:document-units="px"
     inkscape:current-layer="layer1"
     showgrid="false"
     inkscape:window-width="782"
     inkscape:window-height="497"
     inkscape:window-x="569"
     inkscape:window-y="100"
     inkscape:window-maximized="0" />
  <metadata
     id="metadata3854">
    <rdf:RDF>
      <cc:Work
         rdf:about="">
        <dc:format>image/svg+xml</dc:format>
        <dc:type
           rdf:resource="http://purl.org/dc/dcmitype/StillImage" />
        <dc:title></dc:title>
      </cc:Work>
    </rdf:RDF>
  </metadata>
  <g
     inkscape:label="Layer 1"
     inkscape:groupmode="layer"
     id="layer1"
     transform="translate(0,-902.36218)">
    <path
       inkscape:connector-curvature="0"
       style="fill:#000000;fill-opacity:1;stroke:none;filter:url(#filter4544)"
       d="m 74.24621,907.10581 c -38.659929,0 -69.9999983,31.34007 -69.9999983,70 0,38.65989 31.3400693,69.99999 69.9999983,69.99999 38.65993,0 70,-31.3401 70,-69.99999 0,-38.65993 -31.34007,-70 -70,-70 z m 0.25,4.75 c 16.65222,0 31.8429,6.26497 43.34375,16.5625 -10.16887,-6.59444 -22.28997,-10.46875 -35.3125,-10.46875 -35.898506,0 -64.999998,29.10149 -64.999998,65 0,19.32724 8.453717,36.68754 21.843751,48.59374 -17.963552,-11.5655 -29.8750013,-31.7349 -29.8750013,-54.68749 0,-35.89851 29.1014923,-65 64.9999983,-65 z m -50.749997,55.96875 c -0.138146,1.66138 -0.1875,3.33419 -0.1875,5.03125 0,33.13709 26.862915,59.99999 59.999997,59.99999 28.28101,0 51.93914,-19.572 58.28125,-45.90628 -2.56568,30.77268 -28.31452,54.93748 -59.75,54.93748 -33.137082,0 -59.999998,-26.8629 -59.999998,-59.99994 0,-4.85368 0.568302,-9.54273 1.656251,-14.0625 z"
       id="path3857-7" />
    <path
       style="opacity:1;fill:#39d02f;stroke:none;fill-opacity:1"
       d="M 70 0.90625 C 31.340068 0.90625 3.2381505e-17 32.246318 0 70.90625 C -4.6259293e-18 109.56618 31.340068 140.90625 70 140.90625 C 108.65993 140.90625 140 109.56618 140 70.90625 C 140 32.246318 108.65993 0.90625 70 0.90625 z M 70.25 5.65625 C 86.902214 5.65625 102.0929 11.921217 113.59375 22.21875 C 103.42488 15.624313 91.303774 11.75 78.28125 11.75 C 42.382741 11.75 13.28125 40.851491 13.28125 76.75 C 13.28125 96.077338 21.734966 113.4376 35.125 125.34375 C 17.161449 113.77826 5.25 93.608874 5.25 70.65625 C 5.25 34.757741 34.351491 5.65625 70.25 5.65625 z M 19.5 61.625 C 19.361854 63.286381 19.3125 64.959192 19.3125 66.65625 C 19.3125 99.793335 46.175415 126.65625 79.3125 126.65625 C 107.59351 126.65625 131.25164 107.08424 137.59375 80.75 C 135.02807 111.5227 109.27923 135.6875 77.84375 135.6875 C 44.706665 135.6875 17.84375 108.82459 17.84375 75.6875 C 17.84375 70.833819 18.412051 66.144766 19.5 61.625 z "
       transform="translate(0,902.36218)"
       id="path3857" />
    <text
       xml:space="preserve"
       style="font-size:40px;font-style:normal;font-weight:normal;line-height:125%;letter-spacing:0px;word-spacing:0px;fill:#576937;fill-opacity:1;stroke:none;font-family:Bitstream Vera Sans"
       x="45.45686"
       y="976.09564"
       id="text3931"
       sodipodi:linespacing="125%"><tspan
         sodipodi:role="line"
         id="tspan3933"
         x="45.45686"
         y="976.09564"><tspan
   style="font-size:64px;fill:#576937;fill-opacity:1"
   id="tspan3943">T</tspan>rading</tspan></text>
    <text
       xml:space="preserve"
       style="font-size:40px;font-style:normal;font-weight:normal;line-height:125%;letter-spacing:0px;word-spacing:0px;fill:#bedfbc;fill-opacity:1;stroke:none;font-family:Bitstream Vera Sans"
       x="80.812195"
       y="1008.9257"
       id="text3935"
       sodipodi:linespacing="125%"><tspan
         sodipodi:role="line"
         id="tspan3937"
         x="80.812195"
         y="1008.9257"><tspan
   style="font-size:64px;fill:#bedfbc;fill-opacity:1"
   id="tspan3939">S</tspan>ystem</tspan></text>
  </g>
</svg>
