<?xml version="1.0" encoding="UTF-8" standalone="no"?>
<!-- Created with Inkscape (http://www.inkscape.org/) -->

<svg
   xmlns:dc="http://purl.org/dc/elements/1.1/"
   xmlns:cc="http://creativecommons.org/ns#"
   xmlns:rdf="http://www.w3.org/1999/02/22-rdf-syntax-ns#"
   xmlns:svg="http://www.w3.org/2000/svg"
   xmlns="http://www.w3.org/2000/svg"
   xmlns:sodipodi="http://sodipodi.sourceforge.net/DTD/sodipodi-0.dtd"
   xmlns:inkscape="http://www.inkscape.org/namespaces/inkscape"
   width="270"
   height="150"
   id="svg2"
   version="1.1"
   inkscape:version="0.48.3.1 r9886"
   sodipodi:docname="navigation-unregistered.svg"
   inkscape:export-filename="/home/pascal/Desktop/Design Test/navigation-unregistered-hover.png"
   inkscape:export-xdpi="90"
   inkscape:export-ydpi="90">
  <defs
     id="defs4">
    <filter
       inkscape:collect="always"
       id="filter3912">
      <feGaussianBlur
         inkscape:collect="always"
         stdDeviation="1.4683629"
         id="feGaussianBlur3914" />
    </filter>
    <filter
       inkscape:collect="always"
       id="filter3916">
      <feGaussianBlur
         inkscape:collect="always"
         stdDeviation="1.4683629"
         id="feGaussianBlur3918" />
    </filter>
    <filter
       inkscape:collect="always"
       id="filter3920">
      <feGaussianBlur
         inkscape:collect="always"
         stdDeviation="1.4683629"
         id="feGaussianBlur3922" />
    </filter>
  </defs>
  <sodipodi:namedview
     id="base"
     pagecolor="#ffffff"
     bordercolor="#666666"
     borderopacity="1.0"
     inkscape:pageopacity="0.0"
     inkscape:pageshadow="2"
     inkscape:zoom="1.9466667"
     inkscape:cx="126.49906"
     inkscape:cy="56.469242"
     inkscape:document-units="px"
     inkscape:current-layer="layer1"
     showgrid="false"
     inkscape:window-width="1215"
     inkscape:window-height="776"
     inkscape:window-x="65"
     inkscape:window-y="24"
     inkscape:window-maximized="1"
     showguides="true"
     inkscape:guide-bbox="true" />
  <metadata
     id="metadata7">
    <rdf:RDF>
      <cc:Work
         rdf:about="">
        <dc:format>image/svg+xml</dc:format>
        <dc:type
           rdf:resource="http://purl.org/dc/dcmitype/StillImage" />
        <dc:title></dc:title>
      </cc:Work>
    </rdf:RDF>
  </metadata>
  <g
     inkscape:groupmode="layer"
     id="layer2"
     inkscape:label="Shadow"
     style="display:none"
     sodipodi:insensitive="true">
    <path
       style="fill:#000000;fill-opacity:1;fill-rule:evenodd;stroke:none;filter:url(#filter3920)"
       d="m 186.52407,4.9134032 0,141.5625268 70,-16.875 0,-5.5313 -0.5,0.4063 c -2.9541,-0.708 -5.73827,-1.1989 -8.375,-1.5 -1.22069,-0.1383 -2.25552,-0.2488 -3.09375,-0.2813 l -1.125,-0.031 c -0.23599,-0.081 -0.59862,-0.2041 -1.0625,-0.375 l 0.15625,-1.344 c -0.33364,-0.1791 -1.1367,-0.3099 -2.40625,-0.375 -1.04165,-0.049 -1.8216,-0.3801 -2.375,-1.0312 0.79755,-1.2776 1.56935,-2.55801 2.375,-3.84381 1.08237,-1.6194 2.13218,-2.8723 3.125,-3.7187 1.31023,-1.1068 2.64096,-1.6563 4,-1.6563 1.57065,0 2.77995,0.4786 3.59375,1.4063 0.78125,0.879 1.15625,2.1087 1.15625,3.6875 0,0.3418 -0.0218,0.8394 -0.0625,1.5312 -0.0407,0.69171 -0.0625,1.22081 -0.0625,1.56251 1e-5,0.9929 0.24545,1.5069 0.75,1.5313 0.22787,-0.3255 0.43783,-1.3031 0.625,-2.90631 0.20345,-1.7823 0.45703,-3.0325 0.75,-3.7812 0.49642,-1.2533 1.30078,-1.8682 2.375,-1.8438 l 0.125,0 c 0.01,0 0.0214,0 0.0312,0 l 0,-4.625 c -0.12631,0.2742 -0.25533,0.5279 -0.4375,0.75 -0.6429,0.7812 -1.59863,1.1875 -2.84375,1.1875 -0.18717,0 -0.45442,-0.017 -0.8125,-0.031 -0.36621,-0.016 -0.62532,-0.031 -0.8125,-0.031 -0.56966,0 -0.99641,0.087 -1.28125,0.25 -0.12206,-0.7162 -0.62109,-1.5478 -1.5,-2.5 -0.93586,-1.0172 -1.49348,-1.7685 -1.65625,-2.2812 -0.26854,-0.8463 -0.40624,-1.7939 -0.40625,-2.84377 1e-5,-0.85448 0.15268,-1.702471 0.4375,-2.500001 0.39063,-1.08235 0.93328,-1.62499 1.625,-1.625 0.41505,1e-5 0.85548,0.21128 1.34375,0.59375 1.35092,2.286801 2.03125,4.687821 2.03125,7.218721 0,0.4639 -0.0449,0.9492 -0.0937,1.4375 0.29297,0.4151 0.7142,0.625 1.21875,0.625 0.52084,0 0.93262,-0.233 1.25,-0.6562 0.29297,-0.3743 0.4375,-0.8379 0.4375,-1.375 0,-0.7568 -0.34082,-1.9349 -1,-3.56252 -0.65918,-1.627591 -0.96875,-2.777011 -0.96875,-3.468751 0,-0.39875 0.0941,-0.7477 0.28125,-1 1.58413,1.80136 2.63469,3.502791 3.1875,5.093771 l 0,-16.343767 c -1.44775,1.39997 -2.60752,2.21058 -3.4375,2.375 0.63477,1.15561 0.96875,2.45769 0.96875,3.90625 0,0.9847 -0.28906,1.75781 -0.875,2.34375 -0.58594,0.5778 -1.38216,0.87501 -2.375,0.875 -1.35905,10e-6 -2.7552,-0.54395 -4.1875,-1.59375 -1.52994,-1.13118 -2.28124,-2.32292 -2.28125,-3.625 1e-5,-0.37435 0.0996,-0.92513 0.34375,-1.625 0.24415,-0.708 0.37501,-1.25878 0.375,-1.625 1e-5,-0.16275 -0.0517,-0.36328 -0.125,-0.65625 -0.0814,-0.3011 -0.0937,-0.55597 -0.0937,-0.71875 1e-5,-1.06606 0.42677,-1.59373 1.28125,-1.59375 0.59408,2e-5 1.70801,0.43491 3.34375,1.28125 1.63574,0.83823 2.79883,1.25001 3.53125,1.25 0.63477,10e-6 1.41048,-0.38443 2.28125,-1.125 l 1.25,-1.15625 0,-4.4375 c -0.29453,0.13546 -0.65497,0.21875 -1.09375,0.21875 -0.88704,0 -2.03776,-0.28352 -3.4375,-0.8125 -1.70898,-0.65103 -2.83788,-1.0192 -3.375,-1.125 0.0977,-0.26855 0.4017,-0.59993 0.90625,-1.03125 0.53712,0.0407 1.39193,0.27116 2.53125,0.71875 1.07422,0.42318 1.90593,0.62501 2.5,0.625 0.56966,10e-6 0.84375,-0.28092 0.84375,-0.875 0,-0.44759 -0.13769,-1.09244 -0.40625,-1.90625 -0.22786,-0.62662 -0.43652,-1.24837 -0.65625,-1.875 0.19531,-0.15462 0.389,-0.21874 0.625,-0.21875 0.28483,10e-6 0.64876,0.12273 1.03125,0.375 0.20351,0.34033 0.37051,0.64639 0.53125,0.96875 l 0,-3.46875 c -0.12303,0.0991 -0.2491,0.19812 -0.4375,0.3125 -0.56152,0.33366 -0.88737,0.52051 -0.96875,0.59375 -0.0976,-0.44758 -0.15625,-0.93034 -0.15625,-1.5 0,-0.91146 0.15951,-2.13574 0.46875,-3.625 0.30925,-1.48925 0.46875,-2.31965 0.46875,-2.53125 0,-0.3011 -0.0641,-0.46874 -0.21875,-0.46875 -0.38249,10e-6 -0.84603,0.44857 -1.375,1.34375 -0.93587,1.59505 -1.44303,2.44988 -1.5,2.53125 -0.65918,0.89519 -1.33137,1.34375 -2.03125,1.34375 -1.00911,0 -1.86262,-0.52896 -2.5625,-1.5625 -0.62662,-0.91959 -0.93749,-1.9108 -0.9375,-2.96875 1e-5,-1.33463 0.44044,-2.42674 1.34375,-3.28125 0.11394,-0.0163 0.23796,-0.0312 0.34375,-0.0312 0.73243,1e-5 1.09376,0.36134 1.09375,1.09375 1e-5,0.33367 -0.0872,0.84897 -0.25,1.5 -0.17089,0.64292 -0.24999,1.11199 -0.25,1.4375 1e-5,0.41505 0.13087,0.82129 0.375,1.1875 0.2767,0.41504 0.60938,0.62501 1,0.625 0.39877,10e-6 0.89096,-0.4567 1.46875,-1.34375 l 1.5625,-2.5 c 0.66732,-0.88703 1.30404,-1.31249 1.90625,-1.3125 0.23939,1e-5 0.4652,0.0417 0.65625,0.125 l 0,-7.21875 c -0.33335,0.16145 -0.73666,0.30833 -1.21875,0.40625 -0.77311,0.16277 -1.92252,0.21876 -3.46875,0.21875 -0.71614,1e-5 -1.36783,-0.0137 -1.9375,-0.0625 -0.1302,0.21973 -0.18749,0.48015 -0.1875,0.78125 1e-5,0.30111 0.071,0.75782 0.25,1.34375 0.17091,0.58594 0.28126,1.01953 0.28125,1.3125 1e-5,0.63477 -0.43619,0.98112 -1.25,1.0625 -0.29296,-0.56966 -0.5384,-1.37955 -0.75,-2.4375 -0.25227,-1.26139 -0.44726,-2.08495 -0.59375,-2.5 -0.48013,-0.30924 -1.4427,-0.62141 -2.875,-0.90625 -1.30207,-0.26855 -2.22655,-0.68163 -2.8125,-1.21875 1e-5,-0.32551 0.10093,-0.56282 0.3125,-0.75 0.0895,-0.0814 0.32,-0.23404 0.71875,-0.4375 l 0.25,0 c 0.56967,-0.0163 1.27182,0.14324 2.09375,0.46875 1.06609,0.43133 1.72332,0.65366 2,0.71875 0.0163,-0.21158 0.0313,-0.45019 0.0312,-0.71875 1e-5,-0.26855 -0.007,-0.65852 -0.0312,-1.1875 -0.0244,-0.5371 -0.0312,-0.95018 -0.0312,-1.21875 1e-5,-0.6673 0.0492,-1.20865 0.1875,-1.65625 0.53712,0.0895 0.88477,0.64715 1.03125,1.65625 0.18718,1.31023 0.4476,2.19239 0.78125,2.65625 0.66732,0.92774 1.92579,1.37501 3.78125,1.375 1.22884,1e-5 2.15462,-0.056 2.78125,-0.21875 0.19531,-0.0488 0.3125,-0.15787 0.3125,-0.3125 0,-0.4069 -0.50033,-1.10904 -1.46875,-2.09375 -0.72428,-0.74868 -1.41145,-1.37857 -2.0625,-1.875 0.11394,-0.27668 0.36882,-0.40624 0.71875,-0.40625 0.12207,1e-5 0.28711,0.0219 0.53125,0.0625 0.24414,0.0407 0.44043,0.0626 0.5625,0.0625 0.87439,0.67749 1.54669,1.29993 2.0625,1.90625 l 0,-5.84375 c -0.12582,0.27186 -0.2566,0.52945 -0.4375,0.75 -0.6429,0.78126 -1.59863,1.15625 -2.84375,1.15625 -0.18717,0 -0.45442,0.0164 -0.8125,0 -0.36621,-0.0163 -0.62532,-0.0312 -0.8125,-0.0312 -0.56966,0 -0.99641,0.0873 -1.28125,0.25 -0.12206,-0.71614 -0.62109,-1.54785 -1.5,-2.5 -0.93586,-1.01725 -1.49348,-1.7998 -1.65625,-2.3125 -0.26854,-0.84635 -0.40624,-1.79394 -0.40625,-2.84375 1e-5,-0.85448 0.15268,-1.67121 0.4375,-2.46875 0.39063,-1.08234 0.93328,-1.62499 1.625,-1.625 0.41505,10e-6 0.85548,0.18003 1.34375,0.5625 1.35092,2.28679 2.03125,4.68784 2.03125,7.21875 0,0.46387 -0.0449,0.94923 -0.0937,1.4375 0.29297,0.41505 0.7142,0.62501 1.21875,0.625 0.52084,10e-6 0.93262,-0.20182 1.25,-0.625 0.29297,-0.37435 0.4375,-0.83789 0.4375,-1.375 0,-0.75683 -0.34082,-1.93489 -1,-3.5625 -0.65918,-1.62759 -0.96875,-2.80826 -0.96875,-3.5 0,-0.39875 0.0941,-0.71645 0.28125,-0.96875 1.58413,1.80136 2.63469,3.5028 3.1875,5.09375 l 0,-7.25 c -0.15495,0.0501 -0.30631,0.0957 -0.5,0.125 -0.63476,0.0407 -1.55371,0.098 -2.75,0.1875 -1.23697,0.13835 -2.14778,0.21875 -2.75,0.21875 -1.03352,0 -1.95247,-0.1377 -2.75,-0.40625 0.29298,-0.89518 0.59701,-1.34374 0.90625,-1.34375 0.11394,10e-6 0.28028,0.03 0.5,0.0625 0.21974,0.0326 0.38607,0.0312 0.5,0.0312 0.26856,0 0.4935,-0.0873 0.65625,-0.25 -1.13118,-1.13932 -1.76236,-1.74609 -1.84375,-1.84375 -0.66731,-0.8138 -0.99999,-1.58007 -1,-2.3125 10e-6,-0.708 0.28354,-1.39517 0.8125,-2.0625 0.0488,-0.0569 0.56153,-0.5996 1.5625,-1.625 0.58594,0.47202 0.87501,0.95607 0.875,1.46875 10e-6,0.18718 -0.0436,0.35352 -0.125,0.5 -0.33365,0.19532 -0.61458,0.47755 -0.875,0.84375 -0.27668,0.39877 -0.40624,0.79818 -0.40625,1.15625 10e-6,1.11491 1.09213,2.04753 3.28125,2.8125 1.41216,0.49919 2.70084,0.77871 3.90625,0.875 l 0,-26.7812498 -70,0 z m 62.3125,32.4687498 c -0.3011,0.60222 -0.46874,1.26759 -0.46875,2 1e-5,0.67547 0.1377,1.34637 0.40625,2.0625 0.30111,0.80567 0.70736,1.40007 1.1875,1.75 0.26042,0.18718 0.44727,0.28126 0.59375,0.28125 0.2767,10e-6 0.40626,-0.25357 0.40625,-0.75 1e-5,-0.75682 -0.23176,-1.71255 -0.6875,-2.84375 -0.45572,-1.13117 -0.91666,-1.94661 -1.4375,-2.5 z m -2.84375,35.53125 c 0.30112,0.21973 0.43751,0.46518 0.4375,0.75 1e-5,0.26856 -0.13638,0.52214 -0.4375,0.75 0.0326,0.14649 0.24936,0.44923 0.65625,0.9375 0.39063,0.45573 0.56251,0.78841 0.5625,1 1e-5,0.44759 -0.48404,0.68751 -1.46875,0.6875 -0.92772,1e-5 -1.44042,-0.49349 -1.5625,-1.4375 0.17905,-0.55338 0.34409,-1.09472 0.53125,-1.65625 0.26857,-0.61034 0.7116,-0.94986 1.28125,-1.03125 z m 0.8125,14.71875 c -0.60221,0.36622 -0.90624,1.11069 -0.90625,2.25 1e-5,0.83009 0.65854,1.64812 1.96875,2.4375 1.19629,0.72429 2.24479,1.09375 3.15625,1.09375 0.96843,0 1.4375,-0.41992 1.4375,-1.25 0,-0.71614 -0.17871,-1.63509 -0.59375,-2.75 -0.19531,-0.52896 -0.94791,-0.95572 -2.25,-1.28125 -0.15462,-0.0407 -1.09537,-0.20702 -2.8125,-0.5 z m 2.03125,11.406246 c -0.3011,0.60222 -0.46874,1.267591 -0.46875,2.000001 1e-5,0.67547 0.1377,1.37752 0.40625,2.09372 0.30111,0.8057 0.70736,1.3689 1.1875,1.7188 0.26042,0.1872 0.44727,0.2813 0.59375,0.2812 0.2767,1e-4 0.40626,-0.2536 0.40625,-0.75 1e-5,-0.7568 -0.23176,-1.6812 -0.6875,-2.81247 -0.45572,-1.13117 -0.91666,-1.977851 -1.4375,-2.531251 z m -1.34375,12.875021 c -1.42414,0 -2.79979,0.8766 -4.09375,2.5937 -0.70799,0.9441 -1.55467,2.4262 -2.53125,4.46881 1.42417,0.2849 2.85711,0.5902 4.28125,0.875 1.64389,0.293 3.07553,0.4375 4.3125,0.4375 0.42318,0 0.80632,-0.029 1.15625,-0.062 -0.39876,-0.5533 -0.59374,-1.2911 -0.59375,-2.2188 1e-5,-0.3907 0.0667,-0.97691 0.15625,-1.75001 0.0895,-0.7813 0.12501,-1.3593 0.125,-1.75 1e-5,-1.7171 -0.93261,-2.5937 -2.8125,-2.5937 z m 9.03125,1.2812 c -0.53118,0.3247 -0.88922,0.886 -1.09375,1.6875 -0.13834,0.5453 -0.24739,1.7315 -0.3125,3.56251 -0.0407,1.5055 -0.24381,2.4955 -0.59375,3 l 1.5625,0.8438 c 0.16276,0.1038 0.30882,0.2097 0.4375,0.3125 l 0,-9.40631 z"
       id="path3009-14"
       inkscape:connector-curvature="0" />
    <path
       style="fill:#000000;fill-opacity:1;fill-rule:evenodd;stroke:none;filter:url(#filter3916)"
       d="m 6.524071,4.9134032 0,141.5625268 69.999997,-16.875 0,-0.1875 0,-5.0937 c -0.15596,0.087 -0.38847,0.1562 -0.6875,0.1562 -0.30273,0 -1.82812,-0.3984 -4.5625,-1.2187 -2.17773,-0.6543 -4.48632,-1.1113 -6.9375,-1.375 -0.86913,-0.088 -3.24022,-0.2656 -7.15625,-0.5 -0.10741,-0.1367 -0.18748,-0.2832 -0.1875,-0.4688 2e-5,-0.293 0.16799,-0.6387 0.5,-1 0.33205,-0.3614 0.65432,-0.5196 0.9375,-0.5 l 8.4375,0.7188 c -0.0293,-0.6836 -0.0801,-1.7051 -0.1875,-3.06251 -0.166,-1.3769 -0.65624,-2.2286 -1.4375,-2.5313 -0.27342,-0.1074 -1.31835,-0.2539 -3.125,-0.4687 -1.38671,-0.1563 -2.3867,-0.3125 -3.03125,-0.4688 -1.15232,-0.2636 -2.11131,-0.6816 -2.84375,-1.2187 -0.039,-0.127 -0.0312,-0.2227 -0.0312,-0.2813 2e-5,-0.4785 0.23244,-0.7929 0.75,-0.9687 l 8.46875,1.25 c 0.29298,-1.1328 0.44923,-1.7227 0.46875,-1.7813 0.26369,-0.7032 0.65821,-1.1347 1.15625,-1.2812 0.35157,0.3516 0.6172,0.9492 0.8125,1.75 0.0781,0.4297 0.2461,1.0097 0.5,1.7812 0.32227,0.6348 0.83986,1.0293 1.5625,1.1563 2.46095,0.4199 4.50391,0.6601 6.125,0.7187 l -0.25,-1.1875 c 0.0879,-0.019 0.19336,-0.031 0.28125,-0.031 0.14958,0 0.28792,0.026 0.4375,0.062 l 0,-6.125 c -0.35401,0.7544 -0.88574,1.4238 -1.59375,2 -0.23437,0.02 -0.46289,0.031 -0.6875,0.031 -2.28516,0 -4.30077,-0.8633 -6,-2.5625 -1.07421,0 -1.96679,-0.4238 -2.71875,-1.3125 -0.71288,-0.8496 -1.06249,-1.8437 -1.0625,-2.9375 1e-5,-1.42572 0.49611,-2.664021 1.53125,-3.718721 1.0254,-1.0645 2.26173,-1.5937 3.6875,-1.5938 1.9629,1e-4 3.68165,0.7793 5.15625,2.3125 0.76322,0.793601 1.3193,1.651301 1.6875,2.562521 l 0,-7.000017 c -0.0617,0.01 -0.12263,0.01 -0.1875,0 l -9,-0.7187 c -0.10741,-0.01 -0.17772,-0.2988 -0.1875,-0.875 1e-5,-0.098 0.01,-0.1582 0,-0.1875 l 1.4375,-1.0938 c -0.77148,-0.4589 -1.48241,-1.0859 -2.15625,-1.9062 -0.78124,-0.9473 -1.18748,-1.8105 -1.1875,-2.5625 2e-5,-0.6445 0.28907,-1.127 0.875,-1.4688 0.24415,-0.1367 0.79493,-0.3496 1.625,-0.5937 0.58594,-0.1758 0.87501,-0.3691 0.875,-0.5938 1e-5,-0.01 -0.46874,-0.6855 -1.40625,-2.0625 -0.94725,-1.3867 -1.40624,-2.4921 -1.40625,-3.3125 1e-5,-1.621 1.13282,-2.4374 3.4375,-2.4375 0.27344,1e-4 1.91797,0.1583 4.90625,0.5 0.94797,0.1091 1.72103,0.2512 2.375,0.4063 l 0,-6.875 c -0.17706,0.6636 -0.45852,1.2491 -0.84375,1.7187 -0.77148,0.9375 -1.9121,1.4063 -3.40625,1.4063 -0.2246,0 -0.53906,-0.012 -0.96875,-0.031 -0.43945,-0.02 -0.77538,-0.031 -1,-0.031 -0.68358,0 -1.18945,0.086 -1.53125,0.2812 -0.14648,-0.8593 -0.7578,-1.8574 -1.8125,-3 -1.12304,-1.2207 -1.77342,-2.1347 -1.96875,-2.75 -0.32225,-1.0156 -0.49998,-2.1464 -0.5,-3.4062 2e-5,-1.0254 0.18946,-2.0117 0.53125,-2.9688 0.46876,-1.2988 1.10743,-1.9374 1.9375,-1.9375 0.49806,10e-5 1.03907,0.2286 1.625,0.6875 1.6211,2.7442 2.4375,5.6192 2.4375,8.6563 0,0.5566 -0.0351,1.1328 -0.0937,1.7187 0.35157,0.4981 0.83204,0.75 1.4375,0.75 0.62501,0 1.11915,-0.2734 1.5,-0.7812 0.35157,-0.4492 0.53125,-0.9805 0.53125,-1.625 0,-0.9082 -0.39648,-2.3281 -1.1875,-4.2813 -0.79101,-1.9531 -1.18749,-3.3574 -1.1875,-4.1875 1e-5,-0.4785 0.11915,-0.8847 0.34375,-1.1875 2.25247,2.5614 3.64136,4.9495 4.15625,7.1563 l 0,-25.4063 0,-37.3124998 -69.999997,0 z M 66.961568,62.819703 c -0.36132,0.7227 -0.53124,1.5273 -0.53125,2.4062 1e-5,0.8106 0.14649,1.6719 0.46875,2.5313 0.36133,0.9668 0.83008,1.6426 1.40625,2.0625 0.31251,0.2246 0.57423,0.3437 0.75,0.3437 0.33204,0 0.5,-0.3105 0.5,-0.9062 0,-0.9082 -0.29686,-2.0176 -0.84375,-3.375 -0.54686,-1.3574 -1.12499,-2.3984 -1.75,-3.0625 z m 2.03125,16.4062 c -0.75194,1e-4 -1.12499,0.1094 -1.125,0.3438 1e-5,0.6543 0.36133,1.4707 1.09375,2.4375 0.85938,1.1328 2.41797,2.4316 4.625,3.9062 1.12305,0.752 1.65625,1.2676 1.65625,1.5313 0,0.3906 -0.21875,0.7285 -0.6875,1.0312 -0.41992,0.2832 -0.84179,0.4063 -1.28125,0.4063 -0.51758,0 -1.27538,-0.1113 -2.28125,-0.375 -1.01562,-0.2734 -1.79492,-0.4063 -2.3125,-0.4063 -0.30273,0 -0.57811,0.016 -0.8125,0.094 1.01564,1.1035 2.50586,2.1816 4.46875,3.1875 0.70783,0.3539 2.18539,0.9881 4.1875,1.8437 l 0,-12.5 c -0.34271,-0.098 -0.7718,-0.2357 -1.28125,-0.4375 -0.69336,-0.2734 -1.70508,-0.5156 -3.0625,-0.75 -1.29883,-0.2148 -2.37694,-0.3124 -3.1875,-0.3125 z m 0.4375,20.249996 c -0.73242,0 -1.35546,0.2735 -1.84375,0.781301 -0.49803,0.5078 -0.74999,1.1113 -0.75,1.8437 1e-5,0.53722 0.18946,1.00592 0.53125,1.40632 0.47852,-0.2832 0.91212,-0.4063 1.3125,-0.4063 0.58594,0 1.18555,0.3164 1.78125,1 0.51758,0.6348 1.01368,1.2813 1.53125,1.9063 0.6543,0.6641 1.35157,0.9766 2.09375,0.9375 l 0.28125,-0.031 c 0,-1.3965 -0.0508,-2.4198 -0.1875,-3.0937 -0.2246,-1.1132 -0.68164,-2.03712 -1.375,-2.75002 -1.04492,-1.0645 -2.17382,-1.593801 -3.375,-1.593801 z m -0.3125,16.218821 c -0.0195,0.1758 -0.0312,0.3575 -0.0312,0.5625 0,0.5469 0.086,1.29091 0.28125,2.21871 0.22462,1.0644 0.3672,1.7871 0.40625,2.1875 1.06446,0.4102 2.67578,0.9609 4.84375,1.625 0.26367,-0.3516 0.63477,-0.5312 1.09375,-0.5312 0.31354,0 0.5785,0.071 0.8125,0.25 l 0,-5.59381 c -0.36769,0.061 -0.78615,0.094 -1.28125,0.094 -1.5332,0 -3.5664,-0.2754 -6.125,-0.8125 z"
       id="path3009-1-8"
       inkscape:connector-curvature="0" />
    <path
       style="fill:#000000;fill-opacity:1;fill-rule:evenodd;stroke:none;filter:url(#filter3912)"
       d="m 96.524068,4.9133332 0,141.5625968 70.000002,-16.875 0,-1.6563 0,-3.625 c -0.52997,-0.1516 -1.49029,-0.4525 -3.25,-1.0937 -1.38671,-0.5078 -2.65038,-0.8769 -3.8125,-1.0625 -1.25976,-0.205 -3.86913,-0.3867 -7.84375,-0.5625 -0.96678,-0.039 -1.72264,-0.088 -2.25,-0.1563 -1.24998,-0.1562 -1.89842,-0.3847 -1.9375,-0.6875 -0.0586,-0.098 -0.0937,-0.1953 -0.0937,-0.3125 2e-5,-0.4199 0.44533,-0.873 1.34375,-1.3125 0.25392,0.039 1.15236,0.1328 2.65625,0.25 l 5.21875,0.4063 c 3.33985,0.2539 5.875,0.7149 7.59375,1.4375 0.0586,-0.3027 0.0937,-0.6172 0.0937,-0.9688 0,-0.5859 -0.10548,-1.4511 -0.28125,-2.5937 -0.18555,-1.15231 -0.28125,-2.00791 -0.28125,-2.59381 0,-1.6699 0.57617,-2.8476 1.71875,-3.5312 0.14648,-0.088 0.3125,-0.1563 0.46875,-0.1563 0.23262,0 0.45134,0.073 0.65625,0.1875 l 0,-2.875 c -0.30876,0.4438 -0.70136,0.8486 -1.15625,1.2188 -0.23437,0.019 -0.46289,0.031 -0.6875,0.031 -2.28515,0 -4.26953,-0.8633 -5.96875,-2.5625 -1.07421,0 -1.99803,-0.4239 -2.75,-1.3125 -0.71288,-0.8496 -1.06249,-1.8437 -1.0625,-2.9375 0.008,-1.41272 0.53491,-2.67182 1.5625,-3.718821 1.0254,-1.0644 2.23048,-1.5937 3.65625,-1.5937 1.96289,0 3.68164,0.7793 5.15625,2.312501 0.49726,0.517 0.92042,1.058 1.25,1.625 0,-0.8577 -1e-5,-14.695997 0,-16.906317 -1.39163,1.2504 -2.52426,1.98782 -3.375,2.15632 0.76171,1.3867 1.15625,2.9492 1.15625,4.6875 0,1.1816 -0.35938,2.1406 -1.0625,2.8437 -0.70313,0.6934 -1.65234,1.0313 -2.84375,1.0313 -1.63085,0 -3.3125,-0.6152 -5.03125,-1.875 -1.83593,-1.3574 -2.74999,-2.8125 -2.75,-4.375 1e-5,-0.4492 0.14454,-1.0977 0.4375,-1.9375 0.29298,-0.8496 0.43751,-1.49802 0.4375,-1.93752 1e-5,-0.1953 -0.0371,-0.4609 -0.125,-0.8125 -0.0977,-0.3613 -0.15623,-0.6484 -0.15625,-0.8438 2e-5,-1.2792 0.50587,-1.9374 1.53125,-1.9375 0.7129,1e-4 2.06837,0.5157 4.03125,1.5313 1.9629,1.0059 3.37109,1.5 4.25,1.5 0.76172,0 1.67383,-0.4238 2.71875,-1.3125 0.26135,-0.2386 0.5199,-0.4801 0.78125,-0.7188 l 0,-5.9687 c -0.3291,0.1256 -0.72461,0.2187 -1.1875,0.2187 -1.06445,0 -2.41406,-0.3339 -4.09375,-0.9687 -2.05077,-0.7813 -3.41796,-1.2168 -4.0625,-1.3438 0.1172,-0.3222 0.48829,-0.7636 1.09375,-1.2812 0.64454,0.049 1.63282,0.3379 3,0.875 1.28907,0.5078 2.31837,0.7813 3.03125,0.7812 0.6836,1e-4 1.00001,-0.3496 1,-1.0625 1e-5,-0.5371 -0.14649,-1.3046 -0.46875,-2.2812 -0.27344,-0.7519 -0.54882,-1.498 -0.8125,-2.25 0.23438,-0.1855 0.49805,-0.2812 0.78125,-0.2813 0.3418,1e-4 0.72852,0.1348 1.1875,0.4375 0.19953,0.3337 0.36598,0.6495 0.53125,0.9688 l 0,-3.7813 c -0.49548,0.2365 -1.24324,0.375 -2.21875,0.375 -0.70312,0 -1.87304,-0.1093 -3.5625,-0.3437 -1.68944,-0.2441 -2.86523,-0.375 -3.5,-0.375 -0.20507,0 -0.38671,0.012 -0.5625,0.031 0.22462,-0.8398 0.63478,-1.4902 1.25,-1.9688 0.0781,0 0.23439,0.012 0.46875,0.031 0.19532,0.01 0.35157,0 0.46875,0 0.28321,1e-4 0.51173,-0.072 0.6875,-0.2187 -1.80663,-1.2891 -2.90038,-2.1406 -3.28125,-2.5313 -1.05468,-1.0742 -1.56249,-2.3007 -1.5625,-3.6875 1e-5,-1.5917 0.77345,-2.7929 2.375,-3.5937 1.24024,-0.625 2.75391,-0.9375 4.53125,-0.9375 1.71651,0 3.35957,0.2854 4.90625,0.8125 1e-5,-4.6405 0,-11.0076 0,-12.625 0,-4.632 0,-0.025 0,-36.1562498 l 0,-0.8125 -70.000002,0 z M 161.64907,55.882083 c -1.31836,0 -2.28125,0.1289 -2.90625,0.3437 -1.05468,0.3516 -1.59373,1.0274 -1.59375,2.0625 2e-5,1.4942 0.87696,2.8028 2.625,3.9063 0.9375,0.5859 2.58204,1.2852 4.90625,2.125 0.80881,0.2937 1.40917,0.5773 1.84375,0.8125 l 0,-7.75 c -0.27235,-0.2714 -0.5334,-0.5731 -0.8125,-0.9688 -1.11327,-0.3417 -2.48047,-0.5312 -4.0625,-0.5312 z m -7.65625,12.8125 c 0.36134,0.2637 0.56252,0.5645 0.5625,0.9062 2e-5,0.3223 -0.20116,0.6016 -0.5625,0.875 0.0391,0.1758 0.32423,0.5704 0.8125,1.1563 0.46876,0.5469 0.68751,0.9336 0.6875,1.1875 1e-5,0.5371 -0.56835,0.8125 -1.75,0.8125 -1.11327,0 -1.75975,-0.5547 -1.90625,-1.6875 0.21486,-0.6641 0.43166,-1.3574 0.65625,-2.0313 0.32228,-0.7324 0.81642,-1.121 1.5,-1.2187 z m 1.59375,17.65622 c -0.72265,0.4395 -1.06249,1.3516 -1.0625,2.7188 1e-5,0.9961 0.77149,1.959 2.34375,2.9062 1.43555,0.8692 2.68751,1.3125 3.78125,1.3125 1.16211,0 1.75,-0.5039 1.75,-1.5 0,-0.8593 -0.25195,-1.9433 -0.75,-3.2812 -0.23437,-0.6348 -1.12499,-1.1406 -2.6875,-1.5313 -0.18554,-0.049 -1.31444,-0.2734 -3.375,-0.625 z m 4.28125,13.593796 c -0.73241,0 -1.32421,0.273401 -1.8125,0.781201 -0.49804,0.5079 -0.74999,1.1114 -0.75,1.84382 1e-5,0.5371 0.15822,1.0059 0.5,1.4063 0.47853,-0.2832 0.94337,-0.4063 1.34375,-0.4063 0.58595,0 1.15431,0.3164 1.75,1 0.51759,0.6347 1.04493,1.2813 1.5625,1.9063 0.6543,0.6641 1.35156,0.9766 2.09375,0.9375 l 0.28125,-0.031 c 0,-1.3965 -0.0821,-2.4199 -0.21875,-3.0937 -0.22461,-1.1133 -0.68163,-2.0372 -1.375,-2.75012 -1.04491,-1.0644 -2.17382,-1.593701 -3.375,-1.593701 z m 6.65625,13.937521 c -0.4764,0.077 -0.90662,0.1408 -0.9375,0.1563 -0.0977,0.4785 -0.15625,0.9824 -0.15625,1.5 0,1.2207 0.3125,2.67581 0.9375,4.37501 0.0691,0.189 0.0928,0.2626 0.15625,0.4375 l 0,-6.46881 z"
       id="path3009-1-0-4"
       inkscape:connector-curvature="0" />
  </g>
  <g
     inkscape:groupmode="layer"
     id="layer3"
     inkscape:label="Hover">
    <path
       style="fill:#000000;fill-opacity:0.30588236;fill-rule:evenodd;stroke:none"
       d="M 180,0.43748 180,142 l 70,-16.875 0,-5.5313 -0.5,0.4063 c -2.9541,-0.708 -5.73827,-1.1989 -8.375,-1.5 -1.22069,-0.1383 -2.25552,-0.2488 -3.09375,-0.2813 l -1.125,-0.031 c -0.23599,-0.081 -0.59862,-0.2041 -1.0625,-0.375 L 236,116.4687 c -0.33364,-0.1791 -1.1367,-0.3099 -2.40625,-0.375 -1.04165,-0.049 -1.8216,-0.3801 -2.375,-1.0312 0.79755,-1.2776 1.56935,-2.558 2.375,-3.8438 1.08237,-1.6194 2.13218,-2.8723 3.125,-3.7187 1.31023,-1.1068 2.64096,-1.6563 4,-1.6563 1.57065,0 2.77995,0.4786 3.59375,1.4063 0.78125,0.879 1.15625,2.1087 1.15625,3.6875 0,0.3418 -0.0218,0.8394 -0.0625,1.5312 -0.0407,0.6917 -0.0625,1.2208 -0.0625,1.5625 1e-5,0.9929 0.24545,1.5069 0.75,1.5313 0.22787,-0.3255 0.43783,-1.3031 0.625,-2.9063 0.20345,-1.7823 0.45703,-3.0325 0.75,-3.7812 0.49642,-1.2533 1.30078,-1.8682 2.375,-1.8438 l 0.125,0 c 0.01,0 0.0214,0 0.0312,0 l 0,-4.625 c -0.12631,0.2742 -0.25533,0.5279 -0.4375,0.75 -0.6429,0.7812 -1.59863,1.1875 -2.84375,1.1875 -0.18717,0 -0.45442,-0.017 -0.8125,-0.031 -0.36621,-0.016 -0.62532,-0.031 -0.8125,-0.031 -0.56966,0 -0.99641,0.087 -1.28125,0.25 -0.12206,-0.7162 -0.62109,-1.5478 -1.5,-2.5 -0.93586,-1.0172 -1.49348,-1.7685 -1.65625,-2.2812 -0.26854,-0.8463 -0.40624,-1.7939 -0.40625,-2.84377 10e-6,-0.85448 0.15268,-1.70247 0.4375,-2.5 0.39063,-1.08235 0.93328,-1.62499 1.625,-1.625 0.41505,1e-5 0.85548,0.21128 1.34375,0.59375 1.35092,2.2868 2.03125,4.68782 2.03125,7.21872 0,0.4639 -0.0449,0.9492 -0.0937,1.4375 0.29297,0.4151 0.7142,0.625 1.21875,0.625 0.52084,0 0.93262,-0.233 1.25,-0.6562 0.29297,-0.3743 0.4375,-0.8379 0.4375,-1.375 0,-0.7568 -0.34082,-1.9349 -1,-3.56252 -0.65918,-1.62759 -0.96875,-2.77701 -0.96875,-3.46875 0,-0.39875 0.0941,-0.7477 0.28125,-1 1.58413,1.80136 2.63469,3.50279 3.1875,5.09377 l 0,-16.34377 c -1.44775,1.39997 -2.60752,2.21058 -3.4375,2.375 0.63477,1.15561 0.96875,2.45769 0.96875,3.90625 0,0.9847 -0.28906,1.75781 -0.875,2.34375 -0.58594,0.5778 -1.38216,0.87501 -2.375,0.875 -1.35905,1e-5 -2.7552,-0.54395 -4.1875,-1.59375 -1.52994,-1.13118 -2.28124,-2.32292 -2.28125,-3.625 1e-5,-0.37435 0.0996,-0.92513 0.34375,-1.625 0.24415,-0.708 0.37501,-1.25878 0.375,-1.625 1e-5,-0.16275 -0.0517,-0.36328 -0.125,-0.65625 -0.0814,-0.3011 -0.0937,-0.55597 -0.0937,-0.71875 1e-5,-1.06606 0.42677,-1.59373 1.28125,-1.59375 0.59408,2e-5 1.70801,0.43491 3.34375,1.28125 1.63574,0.83823 2.79883,1.25001 3.53125,1.25 0.63477,1e-5 1.41048,-0.38443 2.28125,-1.125 l 1.25,-1.15625 0,-4.4375 c -0.29453,0.13546 -0.65497,0.21875 -1.09375,0.21875 -0.88704,0 -2.03776,-0.28352 -3.4375,-0.8125 -1.70898,-0.65103 -2.83788,-1.0192 -3.375,-1.125 0.0977,-0.26855 0.4017,-0.59993 0.90625,-1.03125 0.53712,0.0407 1.39193,0.27116 2.53125,0.71875 1.07422,0.42318 1.90593,0.62501 2.5,0.625 0.56966,1e-5 0.84375,-0.28092 0.84375,-0.875 0,-0.44759 -0.13769,-1.09244 -0.40625,-1.90625 -0.22786,-0.62662 -0.43652,-1.24837 -0.65625,-1.875 0.19531,-0.15462 0.389,-0.21874 0.625,-0.21875 0.28483,1e-5 0.64876,0.12273 1.03125,0.375 0.20351,0.34033 0.37051,0.64639 0.53125,0.96875 l 0,-3.46875 c -0.12303,0.0991 -0.2491,0.19812 -0.4375,0.3125 -0.56152,0.33366 -0.88737,0.52051 -0.96875,0.59375 -0.0976,-0.44758 -0.15625,-0.93034 -0.15625,-1.5 0,-0.91146 0.15951,-2.13574 0.46875,-3.625 0.30925,-1.48925 0.46875,-2.31965 0.46875,-2.53125 0,-0.3011 -0.0641,-0.46874 -0.21875,-0.46875 -0.38249,10e-6 -0.84603,0.44857 -1.375,1.34375 -0.93587,1.59505 -1.44303,2.44988 -1.5,2.53125 -0.65918,0.89519 -1.33137,1.34375 -2.03125,1.34375 -1.00911,0 -1.86262,-0.52896 -2.5625,-1.5625 -0.62662,-0.91959 -0.93749,-1.9108 -0.9375,-2.96875 1e-5,-1.33463 0.44044,-2.42674 1.34375,-3.28125 0.11394,-0.0163 0.23796,-0.0312 0.34375,-0.0312 0.73243,1e-5 1.09376,0.36134 1.09375,1.09375 1e-5,0.33367 -0.0872,0.84897 -0.25,1.5 -0.17089,0.64292 -0.24999,1.11199 -0.25,1.4375 1e-5,0.41505 0.13087,0.82129 0.375,1.1875 0.2767,0.41504 0.60938,0.62501 1,0.625 0.39877,1e-5 0.89096,-0.4567 1.46875,-1.34375 l 1.5625,-2.5 c 0.66732,-0.88703 1.30404,-1.31249 1.90625,-1.3125 0.23939,1e-5 0.4652,0.0417 0.65625,0.125 l 0,-7.21875 c -0.33335,0.16145 -0.73666,0.30833 -1.21875,0.40625 -0.77311,0.16277 -1.92252,0.21876 -3.46875,0.21875 -0.71614,1e-5 -1.36783,-0.0137 -1.9375,-0.0625 -0.1302,0.21973 -0.18749,0.48015 -0.1875,0.78125 1e-5,0.30111 0.071,0.75782 0.25,1.34375 0.17091,0.58594 0.28126,1.01953 0.28125,1.3125 1e-5,0.63477 -0.43619,0.98112 -1.25,1.0625 -0.29296,-0.56966 -0.5384,-1.37955 -0.75,-2.4375 -0.25227,-1.26139 -0.44726,-2.08495 -0.59375,-2.5 -0.48013,-0.30924 -1.4427,-0.62141 -2.875,-0.90625 -1.30207,-0.26855 -2.22655,-0.68163 -2.8125,-1.21875 1e-5,-0.32551 0.10093,-0.56282 0.3125,-0.75 0.0895,-0.0814 0.32,-0.23404 0.71875,-0.4375 l 0.25,0 c 0.56967,-0.0163 1.27182,0.14324 2.09375,0.46875 1.06609,0.43133 1.72332,0.65366 2,0.71875 0.0163,-0.21158 0.0313,-0.45019 0.0312,-0.71875 1e-5,-0.26855 -0.007,-0.65852 -0.0312,-1.1875 -0.0244,-0.5371 -0.0312,-0.95018 -0.0312,-1.21875 1e-5,-0.6673 0.0492,-1.20865 0.1875,-1.65625 0.53712,0.0895 0.88477,0.64715 1.03125,1.65625 0.18718,1.31023 0.4476,2.19239 0.78125,2.65625 0.66732,0.92774 1.92579,1.37501 3.78125,1.375 1.22884,1e-5 2.15462,-0.056 2.78125,-0.21875 0.19531,-0.0488 0.3125,-0.15787 0.3125,-0.3125 0,-0.4069 -0.50033,-1.10904 -1.46875,-2.09375 -0.72428,-0.74868 -1.41145,-1.37857 -2.0625,-1.875 0.11394,-0.27668 0.36882,-0.40624 0.71875,-0.40625 0.12207,1e-5 0.28711,0.0219 0.53125,0.0625 0.24414,0.0407 0.44043,0.0626 0.5625,0.0625 0.87439,0.67749 1.54669,1.29993 2.0625,1.90625 l 0,-5.84375 c -0.12582,0.27186 -0.2566,0.52945 -0.4375,0.75 -0.6429,0.78126 -1.59863,1.15625 -2.84375,1.15625 -0.18717,0 -0.45442,0.0164 -0.8125,0 -0.36621,-0.0163 -0.62532,-0.0312 -0.8125,-0.0312 -0.56966,0 -0.99641,0.0873 -1.28125,0.25 -0.12206,-0.71614 -0.62109,-1.54785 -1.5,-2.5 -0.93586,-1.01725 -1.49348,-1.7998 -1.65625,-2.3125 -0.26854,-0.84635 -0.40624,-1.79394 -0.40625,-2.84375 1e-5,-0.85448 0.15268,-1.67121 0.4375,-2.46875 0.39063,-1.08234 0.93328,-1.62499 1.625,-1.625 0.41505,10e-6 0.85548,0.18003 1.34375,0.5625 1.35092,2.28679 2.03125,4.68784 2.03125,7.21875 0,0.46387 -0.0449,0.94923 -0.0937,1.4375 0.29297,0.41505 0.7142,0.62501 1.21875,0.625 0.52084,1e-5 0.93262,-0.20182 1.25,-0.625 0.29297,-0.37435 0.4375,-0.83789 0.4375,-1.375 0,-0.75683 -0.34082,-1.93489 -1,-3.5625 -0.65918,-1.62759 -0.96875,-2.80826 -0.96875,-3.5 0,-0.39875 0.0941,-0.71645 0.28125,-0.96875 1.58413,1.80136 2.63469,3.5028 3.1875,5.09375 l 0,-7.25 c -0.15495,0.0501 -0.30631,0.0957 -0.5,0.125 -0.63476,0.0407 -1.55371,0.098 -2.75,0.1875 -1.23697,0.13835 -2.14778,0.21875 -2.75,0.21875 -1.03352,0 -1.95247,-0.1377 -2.75,-0.40625 0.29298,-0.89518 0.59701,-1.34374 0.90625,-1.34375 0.11394,10e-6 0.28028,0.03 0.5,0.0625 0.21974,0.0326 0.38607,0.0312 0.5,0.0312 0.26856,0 0.4935,-0.0873 0.65625,-0.25 -1.13118,-1.13932 -1.76236,-1.74609 -1.84375,-1.84375 -0.66731,-0.8138 -0.99999,-1.58007 -1,-2.3125 1e-5,-0.708 0.28354,-1.39517 0.8125,-2.0625 0.0488,-0.0569 0.56153,-0.5996 1.5625,-1.625 0.58594,0.47202 0.87501,0.95607 0.875,1.46875 1e-5,0.18718 -0.0436,0.35352 -0.125,0.5 -0.33365,0.19532 -0.61458,0.47755 -0.875,0.84375 -0.27668,0.39877 -0.40624,0.79818 -0.40625,1.15625 1e-5,1.11491 1.09213,2.04753 3.28125,2.8125 1.41216,0.49919 2.70084,0.77871 3.90625,0.875 l 0,-26.78125 -70,0 z m 62.3125,32.46875 c -0.3011,0.60222 -0.46874,1.26759 -0.46875,2 1e-5,0.67547 0.1377,1.34637 0.40625,2.0625 0.30111,0.80567 0.70736,1.40007 1.1875,1.75 0.26042,0.18718 0.44727,0.28126 0.59375,0.28125 0.2767,10e-6 0.40626,-0.25357 0.40625,-0.75 1e-5,-0.75682 -0.23176,-1.71255 -0.6875,-2.84375 -0.45572,-1.13117 -0.91666,-1.94661 -1.4375,-2.5 z m -2.84375,35.53125 c 0.30112,0.21973 0.43751,0.46518 0.4375,0.75 1e-5,0.26856 -0.13638,0.52214 -0.4375,0.75 0.0326,0.14649 0.24936,0.44923 0.65625,0.9375 0.39063,0.45573 0.56251,0.78841 0.5625,1 1e-5,0.44759 -0.48404,0.68751 -1.46875,0.6875 -0.92772,1e-5 -1.44042,-0.49349 -1.5625,-1.4375 0.17905,-0.55338 0.34409,-1.09472 0.53125,-1.65625 0.26857,-0.61034 0.7116,-0.94986 1.28125,-1.03125 z m 0.8125,14.71875 c -0.60221,0.36622 -0.90624,1.11069 -0.90625,2.25 1e-5,0.83009 0.65854,1.64812 1.96875,2.4375 1.19629,0.72429 2.24479,1.09375 3.15625,1.09375 0.96843,0 1.4375,-0.41992 1.4375,-1.25 0,-0.71614 -0.17871,-1.63509 -0.59375,-2.75 -0.19531,-0.52896 -0.94791,-0.95572 -2.25,-1.28125 -0.15462,-0.0407 -1.09537,-0.20702 -2.8125,-0.5 z m 2.03125,11.40625 c -0.3011,0.60222 -0.46874,1.26759 -0.46875,2 1e-5,0.67547 0.1377,1.37752 0.40625,2.09372 0.30111,0.8057 0.70736,1.3689 1.1875,1.7188 0.26042,0.1872 0.44727,0.2813 0.59375,0.2812 0.2767,1e-4 0.40626,-0.2536 0.40625,-0.75 1e-5,-0.7568 -0.23176,-1.6812 -0.6875,-2.81247 -0.45572,-1.13117 -0.91666,-1.97785 -1.4375,-2.53125 z m -1.34375,12.87502 c -1.42414,0 -2.79979,0.8766 -4.09375,2.5937 -0.70799,0.9441 -1.55467,2.4262 -2.53125,4.4688 1.42417,0.2849 2.85711,0.5902 4.28125,0.875 1.64389,0.293 3.07553,0.4375 4.3125,0.4375 0.42318,0 0.80632,-0.029 1.15625,-0.062 -0.39876,-0.5533 -0.59374,-1.2911 -0.59375,-2.2188 1e-5,-0.3907 0.0667,-0.9769 0.15625,-1.75 0.0895,-0.7813 0.12501,-1.3593 0.125,-1.75 1e-5,-1.7171 -0.93261,-2.5937 -2.8125,-2.5937 z M 250,108.7187 c -0.53118,0.3247 -0.88922,0.886 -1.09375,1.6875 -0.13834,0.5453 -0.24739,1.7315 -0.3125,3.5625 -0.0407,1.5055 -0.24381,2.4955 -0.59375,3 l 1.5625,0.8438 c 0.16276,0.1038 0.30882,0.2097 0.4375,0.3125 l 0,-9.4063 z"
       id="path3009-7"
       inkscape:connector-curvature="0" />
    <path
       style="fill:#000000;fill-opacity:0.30588236;fill-rule:evenodd;stroke:none"
       d="M 0,0.43748 0,142 l 69.999996,-16.875 0,-0.1875 0,-5.0937 c -0.15596,0.087 -0.38847,0.1562 -0.6875,0.1562 -0.30273,0 -1.82812,-0.3984 -4.5625,-1.2187 -2.17773,-0.6543 -4.48632,-1.1113 -6.9375,-1.375 -0.86913,-0.088 -3.24022,-0.2656 -7.15625,-0.5 -0.10741,-0.1367 -0.18748,-0.2832 -0.1875,-0.4688 2e-5,-0.293 0.16799,-0.6387 0.5,-1 0.33205,-0.3614 0.65432,-0.5196 0.9375,-0.5 l 8.4375,0.7188 c -0.0293,-0.6836 -0.0801,-1.7051 -0.1875,-3.0625 -0.166,-1.3769 -0.65624,-2.2286 -1.4375,-2.5313 -0.27342,-0.1074 -1.31835,-0.2539 -3.125,-0.4687 -1.38671,-0.1563 -2.3867,-0.3125 -3.03125,-0.4688 -1.15232,-0.2636 -2.11131,-0.6816 -2.84375,-1.2187 -0.039,-0.127 -0.0312,-0.2227 -0.0312,-0.2813 2e-5,-0.4785 0.23244,-0.7929 0.75,-0.9687 l 8.46875,1.25 c 0.29298,-1.1328 0.44923,-1.7227 0.46875,-1.7813 0.26369,-0.7032 0.65821,-1.1347 1.15625,-1.2812 0.35157,0.3516 0.6172,0.9492 0.8125,1.75 0.0781,0.4297 0.2461,1.0097 0.5,1.7812 0.32227,0.6348 0.83986,1.0293 1.5625,1.1563 2.46095,0.4199 4.50391,0.6601 6.125,0.7187 l -0.25,-1.1875 c 0.0879,-0.019 0.19336,-0.031 0.28125,-0.031 0.14958,0 0.28792,0.026 0.4375,0.062 l 0,-6.125 c -0.35401,0.7544 -0.88574,1.4238 -1.59375,2 -0.23437,0.02 -0.46289,0.031 -0.6875,0.031 -2.28516,0 -4.30077,-0.8633 -6,-2.5625 -1.07421,0 -1.96679,-0.4238 -2.71875,-1.3125 -0.71288,-0.8496 -1.06249,-1.8437 -1.0625,-2.9375 1e-5,-1.42572 0.49611,-2.66402 1.53125,-3.71872 1.0254,-1.0645 2.26173,-1.5937 3.6875,-1.5938 1.9629,10e-5 3.68165,0.7793 5.15625,2.3125 0.76322,0.7936 1.3193,1.6513 1.6875,2.56252 l 0,-7.00002 c -0.0617,0.01 -0.12263,0.01 -0.1875,0 l -9,-0.7187 c -0.10741,-0.01 -0.17772,-0.2988 -0.1875,-0.875 1e-5,-0.098 0.01,-0.1582 0,-0.1875 l 1.4375,-1.0938 c -0.77148,-0.4589 -1.48241,-1.0859 -2.15625,-1.9062 -0.78124,-0.9473 -1.18748,-1.8105 -1.1875,-2.5625 2e-5,-0.6445 0.28907,-1.127 0.875,-1.4688 0.24415,-0.1367 0.79493,-0.3496 1.625,-0.5937 0.58594,-0.1758 0.87501,-0.3691 0.875,-0.5938 1e-5,-0.01 -0.46874,-0.6855 -1.40625,-2.0625 -0.94725,-1.3867 -1.40624,-2.4921 -1.40625,-3.3125 1e-5,-1.621 1.13282,-2.4374 3.4375,-2.4375 0.27344,10e-5 1.91797,0.1583 4.90625,0.5 0.94797,0.1091 1.72103,0.2512 2.375,0.4063 l 0,-6.875 c -0.17706,0.6636 -0.45852,1.2491 -0.84375,1.7187 -0.77148,0.9375 -1.9121,1.4063 -3.40625,1.4063 -0.2246,0 -0.53906,-0.012 -0.96875,-0.031 -0.43945,-0.02 -0.77538,-0.031 -1,-0.031 -0.68358,0 -1.18945,0.086 -1.53125,0.2812 -0.14648,-0.8593 -0.7578,-1.8574 -1.8125,-3 -1.12304,-1.2207 -1.77342,-2.1347 -1.96875,-2.75 -0.32225,-1.0156 -0.49998,-2.1464 -0.5,-3.4062 2e-5,-1.0254 0.18946,-2.0117 0.53125,-2.9688 0.46876,-1.2988 1.10743,-1.9374 1.9375,-1.9375 0.49806,10e-5 1.03907,0.2286 1.625,0.6875 1.6211,2.7442 2.4375,5.6192 2.4375,8.6563 0,0.5566 -0.0351,1.1328 -0.0937,1.7187 0.35157,0.4981 0.83204,0.75 1.4375,0.75 0.62501,0 1.11915,-0.2734 1.5,-0.7812 0.35157,-0.4492 0.53125,-0.9805 0.53125,-1.625 0,-0.9082 -0.39648,-2.3281 -1.1875,-4.2813 -0.79101,-1.9531 -1.18749,-3.3574 -1.1875,-4.1875 1e-5,-0.4785 0.11915,-0.8847 0.34375,-1.1875 2.25247,2.5614 3.64136,4.9495 4.15625,7.1563 l 0,-25.4063 0,-37.3125 -69.999996,0 z m 60.437496,57.9063 c -0.36132,0.7227 -0.53124,1.5273 -0.53125,2.4062 10e-6,0.8106 0.14649,1.6719 0.46875,2.5313 0.36133,0.9668 0.83008,1.6426 1.40625,2.0625 0.31251,0.2246 0.57423,0.3437 0.75,0.3437 0.33204,0 0.5,-0.3105 0.5,-0.9062 0,-0.9082 -0.29686,-2.0176 -0.84375,-3.375 -0.54686,-1.3574 -1.12499,-2.3984 -1.75,-3.0625 z m 2.03125,16.4062 c -0.75194,1e-4 -1.12499,0.1094 -1.125,0.3438 10e-6,0.6543 0.36133,1.4707 1.09375,2.4375 0.85938,1.1328 2.41797,2.4316 4.625,3.9062 1.12305,0.752 1.65625,1.2676 1.65625,1.5313 0,0.3906 -0.21875,0.7285 -0.6875,1.0312 -0.41992,0.2832 -0.84179,0.4063 -1.28125,0.4063 -0.51758,0 -1.27538,-0.1113 -2.28125,-0.375 -1.01562,-0.2734 -1.79492,-0.4063 -2.3125,-0.4063 -0.30273,0 -0.57811,0.016 -0.8125,0.094 1.01564,1.1035 2.50586,2.1816 4.46875,3.1875 0.70783,0.3539 2.18539,0.9881 4.1875,1.8437 l 0,-12.5 c -0.34271,-0.098 -0.7718,-0.2357 -1.28125,-0.4375 -0.69336,-0.2734 -1.70508,-0.5156 -3.0625,-0.75 -1.29883,-0.2148 -2.37694,-0.3124 -3.1875,-0.3125 z m 0.4375,20.25 c -0.73242,0 -1.35546,0.2735 -1.84375,0.7813 -0.49803,0.5078 -0.74999,1.1113 -0.75,1.8437 10e-6,0.53722 0.18946,1.00592 0.53125,1.40632 0.47852,-0.2832 0.91212,-0.4063 1.3125,-0.4063 0.58594,0 1.18555,0.3164 1.78125,1 0.51758,0.6348 1.01368,1.2813 1.53125,1.9063 0.6543,0.6641 1.35157,0.9766 2.09375,0.9375 l 0.28125,-0.031 c 0,-1.3965 -0.0508,-2.4198 -0.1875,-3.0937 -0.2246,-1.1132 -0.68164,-2.03712 -1.375,-2.75002 -1.04492,-1.0645 -2.17382,-1.5938 -3.375,-1.5938 z m -0.3125,16.21882 c -0.0195,0.1758 -0.0312,0.3575 -0.0312,0.5625 0,0.5469 0.086,1.2909 0.28125,2.2187 0.22462,1.0644 0.3672,1.7871 0.40625,2.1875 1.06446,0.4102 2.67578,0.9609 4.84375,1.625 0.26367,-0.3516 0.63477,-0.5312 1.09375,-0.5312 0.31354,0 0.5785,0.071 0.8125,0.25 l 0,-5.5938 c -0.36769,0.061 -0.78615,0.094 -1.28125,0.094 -1.5332,0 -3.5664,-0.2754 -6.125,-0.8125 z"
       id="path3009-1-03"
       inkscape:connector-curvature="0" />
    <path
       style="fill:#000000;fill-opacity:0.30588236;fill-rule:evenodd;stroke:none"
       d="M 89.999996,0.43741 89.999996,142 160,125.125 l 0,-1.6563 0,-3.625 c -0.52997,-0.1516 -1.49029,-0.4525 -3.25,-1.0937 -1.38671,-0.5078 -2.65038,-0.8769 -3.8125,-1.0625 -1.25976,-0.205 -3.86913,-0.3867 -7.84375,-0.5625 -0.96678,-0.039 -1.72264,-0.088 -2.25,-0.1563 -1.24998,-0.1562 -1.89842,-0.3847 -1.9375,-0.6875 -0.0586,-0.098 -0.0937,-0.1953 -0.0937,-0.3125 2e-5,-0.4199 0.44533,-0.873 1.34375,-1.3125 0.25392,0.039 1.15236,0.1328 2.65625,0.25 l 5.21875,0.4063 c 3.33985,0.2539 5.875,0.7149 7.59375,1.4375 0.0586,-0.3027 0.0937,-0.6172 0.0937,-0.9688 0,-0.5859 -0.10548,-1.4511 -0.28125,-2.5937 -0.18555,-1.1523 -0.28125,-2.0079 -0.28125,-2.5938 0,-1.6699 0.57617,-2.8476 1.71875,-3.5312 0.14648,-0.088 0.3125,-0.1563 0.46875,-0.1563 0.23262,0 0.45134,0.073 0.65625,0.1875 l 0,-2.875 c -0.30876,0.4438 -0.70136,0.8486 -1.15625,1.2188 -0.23437,0.019 -0.46289,0.031 -0.6875,0.031 -2.28515,0 -4.26953,-0.8633 -5.96875,-2.5625 -1.07421,0 -1.99803,-0.4239 -2.75,-1.3125 -0.71288,-0.8496 -1.06249,-1.8437 -1.0625,-2.9375 0.008,-1.41272 0.53491,-2.67182 1.5625,-3.71882 1.0254,-1.0644 2.23048,-1.5937 3.65625,-1.5937 1.96289,0 3.68164,0.7793 5.15625,2.3125 0.49726,0.517 0.92042,1.058 1.25,1.625 0,-0.8577 -1e-5,-14.696 0,-16.90632 -1.39163,1.2504 -2.52426,1.98782 -3.375,2.15632 0.76171,1.3867 1.15625,2.9492 1.15625,4.6875 0,1.1816 -0.35938,2.1406 -1.0625,2.8437 -0.70313,0.6934 -1.65234,1.0313 -2.84375,1.0313 -1.63085,0 -3.3125,-0.6152 -5.03125,-1.875 -1.83593,-1.3574 -2.74999,-2.8125 -2.75,-4.375 1e-5,-0.4492 0.14454,-1.0977 0.4375,-1.9375 0.29298,-0.8496 0.43751,-1.49802 0.4375,-1.93752 1e-5,-0.1953 -0.0371,-0.4609 -0.125,-0.8125 -0.0977,-0.3613 -0.15623,-0.6484 -0.15625,-0.8438 2e-5,-1.2792 0.50587,-1.9374 1.53125,-1.9375 0.7129,10e-5 2.06837,0.5157 4.03125,1.5313 1.9629,1.0059 3.37109,1.5 4.25,1.5 0.76172,0 1.67383,-0.4238 2.71875,-1.3125 0.26135,-0.2386 0.5199,-0.4801 0.78125,-0.7188 l 0,-5.9687 c -0.3291,0.1256 -0.72461,0.2187 -1.1875,0.2187 -1.06445,0 -2.41406,-0.3339 -4.09375,-0.9687 -2.05077,-0.7813 -3.41796,-1.2168 -4.0625,-1.3438 0.1172,-0.3222 0.48829,-0.7636 1.09375,-1.2812 0.64454,0.049 1.63282,0.3379 3,0.875 1.28907,0.5078 2.31837,0.7813 3.03125,0.7812 0.6836,10e-5 1.00001,-0.3496 1,-1.0625 1e-5,-0.5371 -0.14649,-1.3046 -0.46875,-2.2812 -0.27344,-0.7519 -0.54882,-1.498 -0.8125,-2.25 0.23438,-0.1855 0.49805,-0.2812 0.78125,-0.2813 0.3418,10e-5 0.72852,0.1348 1.1875,0.4375 0.19953,0.3337 0.36598,0.6495 0.53125,0.9688 l 0,-3.7813 c -0.49548,0.2365 -1.24324,0.375 -2.21875,0.375 -0.70312,0 -1.87304,-0.1093 -3.5625,-0.3437 -1.68944,-0.2441 -2.86523,-0.375 -3.5,-0.375 -0.20507,0 -0.38671,0.012 -0.5625,0.031 0.22462,-0.8398 0.63478,-1.4902 1.25,-1.9688 0.0781,0 0.23439,0.012 0.46875,0.031 0.19532,0.01 0.35157,0 0.46875,0 0.28321,10e-5 0.51173,-0.072 0.6875,-0.2187 -1.80663,-1.2891 -2.90038,-2.1406 -3.28125,-2.5313 -1.05468,-1.0742 -1.56249,-2.3007 -1.5625,-3.6875 1e-5,-1.5917 0.77345,-2.7929 2.375,-3.5937 1.24024,-0.625 2.75391,-0.9375 4.53125,-0.9375 1.71651,0 3.35957,0.2854 4.90625,0.8125 1e-5,-4.6405 0,-11.0076 0,-12.625 0,-4.632 0,-0.025 0,-36.15625 l 0,-0.8125 -70.000004,0 z M 155.125,51.40616 c -1.31836,0 -2.28125,0.1289 -2.90625,0.3437 -1.05468,0.3516 -1.59373,1.0274 -1.59375,2.0625 2e-5,1.4942 0.87696,2.8028 2.625,3.9063 0.9375,0.5859 2.58204,1.2852 4.90625,2.125 0.80881,0.2937 1.40917,0.5773 1.84375,0.8125 l 0,-7.75 c -0.27235,-0.2714 -0.5334,-0.5731 -0.8125,-0.9688 -1.11327,-0.3417 -2.48047,-0.5312 -4.0625,-0.5312 z m -7.65625,12.8125 c 0.36134,0.2637 0.56252,0.5645 0.5625,0.9062 2e-5,0.3223 -0.20116,0.6016 -0.5625,0.875 0.0391,0.1758 0.32423,0.5704 0.8125,1.1563 0.46876,0.5469 0.68751,0.9336 0.6875,1.1875 1e-5,0.5371 -0.56835,0.8125 -1.75,0.8125 -1.11327,0 -1.75975,-0.5547 -1.90625,-1.6875 0.21486,-0.6641 0.43166,-1.3574 0.65625,-2.0313 0.32228,-0.7324 0.81642,-1.121 1.5,-1.2187 z m 1.59375,17.65622 c -0.72265,0.4395 -1.06249,1.3516 -1.0625,2.7188 1e-5,0.9961 0.77149,1.959 2.34375,2.9062 1.43555,0.8692 2.68751,1.3125 3.78125,1.3125 1.16211,0 1.75,-0.5039 1.75,-1.5 0,-0.8593 -0.25195,-1.9433 -0.75,-3.2812 -0.23437,-0.6348 -1.12499,-1.1406 -2.6875,-1.5313 -0.18554,-0.049 -1.31444,-0.2734 -3.375,-0.625 z m 4.28125,13.5938 c -0.73241,0 -1.32421,0.2734 -1.8125,0.7812 -0.49804,0.5079 -0.74999,1.1114 -0.75,1.84382 1e-5,0.5371 0.15822,1.0059 0.5,1.4063 0.47853,-0.2832 0.94337,-0.4063 1.34375,-0.4063 0.58595,0 1.15431,0.3164 1.75,1 0.51759,0.6347 1.04493,1.2813 1.5625,1.9063 0.6543,0.6641 1.35156,0.9766 2.09375,0.9375 l 0.28125,-0.031 c 0,-1.3965 -0.0821,-2.4199 -0.21875,-3.0937 -0.22461,-1.1133 -0.68163,-2.0372 -1.375,-2.75012 -1.04491,-1.0644 -2.17382,-1.5937 -3.375,-1.5937 z M 160,109.4062 c -0.4764,0.077 -0.90662,0.1408 -0.9375,0.1563 -0.0977,0.4785 -0.15625,0.9824 -0.15625,1.5 0,1.2207 0.3125,2.6758 0.9375,4.375 0.0691,0.189 0.0928,0.2626 0.15625,0.4375 l 0,-6.4688 z"
       id="path3009-1-0-6"
       inkscape:connector-curvature="0" />
  </g>
  <g
     inkscape:label="Layer 1"
     inkscape:groupmode="layer"
     id="layer1"
     transform="translate(0,-902.36218)"
     style="display:none"
     sodipodi:insensitive="true">
    <path
       style="fill:#39d02f;fill-opacity:1;fill-rule:evenodd;stroke:none"
       d="m 180,902.79968 0,141.56252 70,-16.875 0,-5.5313 -0.5,0.4063 c -2.9541,-0.708 -5.73827,-1.1989 -8.375,-1.5 -1.22069,-0.1383 -2.25552,-0.2488 -3.09375,-0.2813 l -1.125,-0.031 c -0.23599,-0.081 -0.59862,-0.2041 -1.0625,-0.375 L 236,1018.8309 c -0.33364,-0.1791 -1.1367,-0.3099 -2.40625,-0.375 -1.04165,-0.049 -1.8216,-0.3801 -2.375,-1.0312 0.79755,-1.2776 1.56935,-2.558 2.375,-3.8438 1.08237,-1.6194 2.13218,-2.8723 3.125,-3.7187 1.31023,-1.1068 2.64096,-1.6563 4,-1.6563 1.57065,0 2.77995,0.4786 3.59375,1.4063 0.78125,0.879 1.15625,2.1087 1.15625,3.6875 0,0.3418 -0.0218,0.8394 -0.0625,1.5312 -0.0407,0.6917 -0.0625,1.2208 -0.0625,1.5625 1e-5,0.9929 0.24545,1.5069 0.75,1.5313 0.22787,-0.3255 0.43783,-1.3031 0.625,-2.9063 0.20345,-1.7823 0.45703,-3.0325 0.75,-3.7812 0.49642,-1.2533 1.30078,-1.8682 2.375,-1.8438 l 0.125,0 c 0.01,0 0.0214,0 0.0312,0 l 0,-4.625 c -0.12631,0.2742 -0.25533,0.5279 -0.4375,0.75 -0.6429,0.7812 -1.59863,1.1875 -2.84375,1.1875 -0.18717,0 -0.45442,-0.017 -0.8125,-0.031 -0.36621,-0.016 -0.62532,-0.031 -0.8125,-0.031 -0.56966,0 -0.99641,0.087 -1.28125,0.25 -0.12206,-0.7162 -0.62109,-1.5478 -1.5,-2.5 -0.93586,-1.0172 -1.49348,-1.7685 -1.65625,-2.2812 -0.26854,-0.8463 -0.40624,-1.7939 -0.40625,-2.84377 10e-6,-0.85448 0.15268,-1.70247 0.4375,-2.5 0.39063,-1.08235 0.93328,-1.62499 1.625,-1.625 0.41505,1e-5 0.85548,0.21128 1.34375,0.59375 1.35092,2.2868 2.03125,4.68782 2.03125,7.21872 0,0.4639 -0.0449,0.9492 -0.0937,1.4375 0.29297,0.4151 0.7142,0.625 1.21875,0.625 0.52084,0 0.93262,-0.233 1.25,-0.6562 0.29297,-0.3743 0.4375,-0.8379 0.4375,-1.375 0,-0.7568 -0.34082,-1.9349 -1,-3.56252 -0.65918,-1.62759 -0.96875,-2.77701 -0.96875,-3.46875 0,-0.39875 0.0941,-0.7477 0.28125,-1 1.58413,1.80136 2.63469,3.50279 3.1875,5.09377 l 0,-16.34377 c -1.44775,1.39997 -2.60752,2.21058 -3.4375,2.375 0.63477,1.15561 0.96875,2.45769 0.96875,3.90625 0,0.9847 -0.28906,1.75781 -0.875,2.34375 -0.58594,0.5778 -1.38216,0.87501 -2.375,0.875 -1.35905,1e-5 -2.7552,-0.54395 -4.1875,-1.59375 -1.52994,-1.13118 -2.28124,-2.32292 -2.28125,-3.625 1e-5,-0.37435 0.0996,-0.92513 0.34375,-1.625 0.24415,-0.708 0.37501,-1.25878 0.375,-1.625 1e-5,-0.16275 -0.0517,-0.36328 -0.125,-0.65625 -0.0814,-0.3011 -0.0937,-0.55597 -0.0937,-0.71875 1e-5,-1.06606 0.42677,-1.59373 1.28125,-1.59375 0.59408,2e-5 1.70801,0.43491 3.34375,1.28125 1.63574,0.83823 2.79883,1.25001 3.53125,1.25 0.63477,1e-5 1.41048,-0.38443 2.28125,-1.125 l 1.25,-1.15625 0,-4.4375 c -0.29453,0.13546 -0.65497,0.21875 -1.09375,0.21875 -0.88704,0 -2.03776,-0.28352 -3.4375,-0.8125 -1.70898,-0.65103 -2.83788,-1.0192 -3.375,-1.125 0.0977,-0.26855 0.4017,-0.59993 0.90625,-1.03125 0.53712,0.0407 1.39193,0.27116 2.53125,0.71875 1.07422,0.42318 1.90593,0.62501 2.5,0.625 0.56966,1e-5 0.84375,-0.28092 0.84375,-0.875 0,-0.44759 -0.13769,-1.09244 -0.40625,-1.90625 -0.22786,-0.62662 -0.43652,-1.24837 -0.65625,-1.875 0.19531,-0.15462 0.389,-0.21874 0.625,-0.21875 0.28483,1e-5 0.64876,0.12273 1.03125,0.375 0.20351,0.34033 0.37051,0.64639 0.53125,0.96875 l 0,-3.46875 c -0.12303,0.0991 -0.2491,0.19812 -0.4375,0.3125 -0.56152,0.33366 -0.88737,0.52051 -0.96875,0.59375 -0.0976,-0.44758 -0.15625,-0.93034 -0.15625,-1.5 0,-0.91146 0.15951,-2.13574 0.46875,-3.625 0.30925,-1.48925 0.46875,-2.31965 0.46875,-2.53125 0,-0.3011 -0.0641,-0.46874 -0.21875,-0.46875 -0.38249,1e-5 -0.84603,0.44857 -1.375,1.34375 -0.93587,1.59505 -1.44303,2.44988 -1.5,2.53125 -0.65918,0.89519 -1.33137,1.34375 -2.03125,1.34375 -1.00911,0 -1.86262,-0.52896 -2.5625,-1.5625 -0.62662,-0.91959 -0.93749,-1.9108 -0.9375,-2.96875 1e-5,-1.33463 0.44044,-2.42674 1.34375,-3.28125 0.11394,-0.0163 0.23796,-0.0312 0.34375,-0.0312 0.73243,10e-6 1.09376,0.36134 1.09375,1.09375 1e-5,0.33367 -0.0872,0.84897 -0.25,1.5 -0.17089,0.64292 -0.24999,1.11199 -0.25,1.4375 1e-5,0.41505 0.13087,0.82129 0.375,1.1875 0.2767,0.41504 0.60938,0.62501 1,0.625 0.39877,10e-6 0.89096,-0.4567 1.46875,-1.34375 l 1.5625,-2.5 c 0.66732,-0.88703 1.30404,-1.31249 1.90625,-1.3125 0.23939,10e-6 0.4652,0.0417 0.65625,0.125 l 0,-7.21875 c -0.33335,0.16145 -0.73666,0.30833 -1.21875,0.40625 -0.77311,0.16277 -1.92252,0.21876 -3.46875,0.21875 -0.71614,10e-6 -1.36783,-0.0137 -1.9375,-0.0625 -0.1302,0.21973 -0.18749,0.48015 -0.1875,0.78125 1e-5,0.30111 0.071,0.75782 0.25,1.34375 0.17091,0.58594 0.28126,1.01953 0.28125,1.3125 1e-5,0.63477 -0.43619,0.98112 -1.25,1.0625 -0.29296,-0.56966 -0.5384,-1.37955 -0.75,-2.4375 -0.25227,-1.26139 -0.44726,-2.08495 -0.59375,-2.5 -0.48013,-0.30924 -1.4427,-0.62141 -2.875,-0.90625 -1.30207,-0.26855 -2.22655,-0.68163 -2.8125,-1.21875 1e-5,-0.32551 0.10093,-0.56282 0.3125,-0.75 0.0895,-0.0814 0.32,-0.23404 0.71875,-0.4375 l 0.25,0 c 0.56967,-0.0163 1.27182,0.14324 2.09375,0.46875 1.06609,0.43133 1.72332,0.65366 2,0.71875 0.0163,-0.21158 0.0313,-0.45019 0.0312,-0.71875 1e-5,-0.26855 -0.007,-0.65852 -0.0312,-1.1875 -0.0244,-0.5371 -0.0312,-0.95018 -0.0312,-1.21875 1e-5,-0.6673 0.0492,-1.20865 0.1875,-1.65625 0.53712,0.0895 0.88477,0.64715 1.03125,1.65625 0.18718,1.31023 0.4476,2.19239 0.78125,2.65625 0.66732,0.92774 1.92579,1.37501 3.78125,1.375 1.22884,10e-6 2.15462,-0.056 2.78125,-0.21875 0.19531,-0.0488 0.3125,-0.15787 0.3125,-0.3125 0,-0.4069 -0.50033,-1.10904 -1.46875,-2.09375 -0.72428,-0.74868 -1.41145,-1.37857 -2.0625,-1.875 0.11394,-0.27668 0.36882,-0.40624 0.71875,-0.40625 0.12207,10e-6 0.28711,0.0219 0.53125,0.0625 0.24414,0.0407 0.44043,0.0626 0.5625,0.0625 0.87439,0.67749 1.54669,1.29993 2.0625,1.90625 l 0,-5.84375 c -0.12582,0.27186 -0.2566,0.52945 -0.4375,0.75 -0.6429,0.78126 -1.59863,1.15625 -2.84375,1.15625 -0.18717,0 -0.45442,0.0164 -0.8125,0 -0.36621,-0.0163 -0.62532,-0.0312 -0.8125,-0.0312 -0.56966,0 -0.99641,0.0873 -1.28125,0.25 -0.12206,-0.71614 -0.62109,-1.54785 -1.5,-2.5 -0.93586,-1.01725 -1.49348,-1.7998 -1.65625,-2.3125 -0.26854,-0.84635 -0.40624,-1.79394 -0.40625,-2.84375 1e-5,-0.85448 0.15268,-1.67121 0.4375,-2.46875 0.39063,-1.08234 0.93328,-1.62499 1.625,-1.625 0.41505,10e-6 0.85548,0.18003 1.34375,0.5625 1.35092,2.28679 2.03125,4.68784 2.03125,7.21875 0,0.46387 -0.0449,0.94923 -0.0937,1.4375 0.29297,0.41505 0.7142,0.62501 1.21875,0.625 0.52084,10e-6 0.93262,-0.20182 1.25,-0.625 0.29297,-0.37435 0.4375,-0.83789 0.4375,-1.375 0,-0.75683 -0.34082,-1.93489 -1,-3.5625 -0.65918,-1.62759 -0.96875,-2.80826 -0.96875,-3.5 0,-0.39875 0.0941,-0.71645 0.28125,-0.96875 1.58413,1.80136 2.63469,3.5028 3.1875,5.09375 l 0,-7.25 c -0.15495,0.0501 -0.30631,0.0957 -0.5,0.125 -0.63476,0.0407 -1.55371,0.098 -2.75,0.1875 -1.23697,0.13835 -2.14778,0.21875 -2.75,0.21875 -1.03352,0 -1.95247,-0.1377 -2.75,-0.40625 0.29298,-0.89518 0.59701,-1.34374 0.90625,-1.34375 0.11394,10e-6 0.28028,0.03 0.5,0.0625 0.21974,0.0326 0.38607,0.0312 0.5,0.0312 0.26856,0 0.4935,-0.0873 0.65625,-0.25 -1.13118,-1.13932 -1.76236,-1.74609 -1.84375,-1.84375 -0.66731,-0.8138 -0.99999,-1.58007 -1,-2.3125 1e-5,-0.708 0.28354,-1.39517 0.8125,-2.0625 0.0488,-0.0569 0.56153,-0.5996 1.5625,-1.625 0.58594,0.47202 0.87501,0.95607 0.875,1.46875 1e-5,0.18718 -0.0436,0.35352 -0.125,0.5 -0.33365,0.19532 -0.61458,0.47755 -0.875,0.84375 -0.27668,0.39877 -0.40624,0.79818 -0.40625,1.15625 1e-5,1.11491 1.09213,2.04753 3.28125,2.8125 1.41216,0.49919 2.70084,0.77871 3.90625,0.875 l 0,-26.78125 -70,0 z m 62.3125,32.46875 c -0.3011,0.60222 -0.46874,1.26759 -0.46875,2 1e-5,0.67547 0.1377,1.34637 0.40625,2.0625 0.30111,0.80567 0.70736,1.40007 1.1875,1.75 0.26042,0.18718 0.44727,0.28126 0.59375,0.28125 0.2767,1e-5 0.40626,-0.25357 0.40625,-0.75 1e-5,-0.75682 -0.23176,-1.71255 -0.6875,-2.84375 -0.45572,-1.13117 -0.91666,-1.94661 -1.4375,-2.5 z m -2.84375,35.53125 c 0.30112,0.21973 0.43751,0.46518 0.4375,0.75 1e-5,0.26856 -0.13638,0.52214 -0.4375,0.75 0.0326,0.14649 0.24936,0.44923 0.65625,0.9375 0.39063,0.45573 0.56251,0.78841 0.5625,1 1e-5,0.44759 -0.48404,0.68751 -1.46875,0.6875 -0.92772,1e-5 -1.44042,-0.49349 -1.5625,-1.4375 0.17905,-0.55338 0.34409,-1.09472 0.53125,-1.65625 0.26857,-0.61034 0.7116,-0.94986 1.28125,-1.03125 z m 0.8125,14.71875 c -0.60221,0.36622 -0.90624,1.11069 -0.90625,2.25 1e-5,0.83009 0.65854,1.64812 1.96875,2.4375 1.19629,0.72429 2.24479,1.09375 3.15625,1.09375 0.96843,0 1.4375,-0.41992 1.4375,-1.25 0,-0.71614 -0.17871,-1.63509 -0.59375,-2.75 -0.19531,-0.52896 -0.94791,-0.95572 -2.25,-1.28125 -0.15462,-0.0407 -1.09537,-0.20702 -2.8125,-0.5 z m 2.03125,11.40625 c -0.3011,0.60222 -0.46874,1.26759 -0.46875,2 1e-5,0.67547 0.1377,1.37752 0.40625,2.09372 0.30111,0.8057 0.70736,1.3689 1.1875,1.7188 0.26042,0.1872 0.44727,0.2813 0.59375,0.2812 0.2767,10e-5 0.40626,-0.2536 0.40625,-0.75 1e-5,-0.7568 -0.23176,-1.6812 -0.6875,-2.81247 -0.45572,-1.13117 -0.91666,-1.97785 -1.4375,-2.53125 z m -1.34375,12.87502 c -1.42414,0 -2.79979,0.8766 -4.09375,2.5937 -0.70799,0.9441 -1.55467,2.4262 -2.53125,4.4688 1.42417,0.2849 2.85711,0.5902 4.28125,0.875 1.64389,0.293 3.07553,0.4375 4.3125,0.4375 0.42318,0 0.80632,-0.029 1.15625,-0.062 -0.39876,-0.5533 -0.59374,-1.2911 -0.59375,-2.2188 1e-5,-0.3907 0.0667,-0.9769 0.15625,-1.75 0.0895,-0.7813 0.12501,-1.3593 0.125,-1.75 1e-5,-1.7171 -0.93261,-2.5937 -2.8125,-2.5937 z M 250,1011.0809 c -0.53118,0.3247 -0.88922,0.886 -1.09375,1.6875 -0.13834,0.5453 -0.24739,1.7315 -0.3125,3.5625 -0.0407,1.5055 -0.24381,2.4955 -0.59375,3 l 1.5625,0.8438 c 0.16276,0.1038 0.30882,0.2097 0.4375,0.3125 l 0,-9.4063 z"
       id="path3009"
       inkscape:connector-curvature="0" />
    <text
       xml:space="preserve"
       style="font-size:40px;font-style:normal;font-weight:normal;line-height:125%;letter-spacing:0px;word-spacing:0px;fill:#000000;fill-opacity:1;stroke:none;font-family:Bitstream Vera Sans"
       x="-33.13356"
       y="94.006851"
       id="text3766"
       sodipodi:linespacing="125%"
       transform="translate(0,902.36218)"><tspan
         sodipodi:role="line"
         id="tspan3768"
         x="-33.13356"
         y="94.006851" /></text>
    <path
       style="fill:#39d02f;fill-opacity:1;fill-rule:evenodd;stroke:none"
       d="m 0,902.79968 0,141.56252 70,-16.875 0,-0.1875 0,-5.0937 c -0.15596,0.087 -0.38847,0.1562 -0.6875,0.1562 -0.30273,0 -1.82812,-0.3984 -4.5625,-1.2187 -2.17773,-0.6543 -4.48632,-1.1113 -6.9375,-1.375 -0.86913,-0.088 -3.24022,-0.2656 -7.15625,-0.5 -0.10741,-0.1367 -0.18748,-0.2832 -0.1875,-0.4688 2e-5,-0.293 0.16799,-0.6387 0.5,-1 0.33205,-0.3614 0.65432,-0.5196 0.9375,-0.5 l 8.4375,0.7188 c -0.0293,-0.6836 -0.0801,-1.7051 -0.1875,-3.0625 -0.166,-1.3769 -0.65624,-2.2286 -1.4375,-2.5313 -0.27342,-0.1074 -1.31835,-0.2539 -3.125,-0.4687 -1.38671,-0.1563 -2.3867,-0.3125 -3.03125,-0.4688 -1.15232,-0.2636 -2.11131,-0.6816 -2.84375,-1.2187 -0.039,-0.127 -0.0312,-0.2227 -0.0312,-0.2813 2e-5,-0.4785 0.23244,-0.7929 0.75,-0.9687 l 8.46875,1.25 c 0.29298,-1.1328 0.44923,-1.7227 0.46875,-1.7813 0.26369,-0.7032 0.65821,-1.1347 1.15625,-1.2812 0.35157,0.3516 0.6172,0.9492 0.8125,1.75 0.0781,0.4297 0.2461,1.0097 0.5,1.7812 0.32227,0.6348 0.83986,1.0293 1.5625,1.1563 2.46095,0.4199 4.50391,0.6601 6.125,0.7187 l -0.25,-1.1875 c 0.0879,-0.019 0.19336,-0.031 0.28125,-0.031 0.14958,0 0.28792,0.026 0.4375,0.062 l 0,-6.125 c -0.35401,0.7544 -0.88574,1.4238 -1.59375,2 -0.23437,0.02 -0.46289,0.031 -0.6875,0.031 -2.28516,0 -4.30077,-0.8633 -6,-2.5625 -1.07421,0 -1.96679,-0.4238 -2.71875,-1.3125 -0.71288,-0.8496 -1.06249,-1.8437 -1.0625,-2.9375 10e-6,-1.42572 0.49611,-2.66402 1.53125,-3.71872 1.0254,-1.0645 2.26173,-1.5937 3.6875,-1.5938 1.9629,10e-5 3.68165,0.7793 5.15625,2.3125 0.76322,0.7936 1.3193,1.6513 1.6875,2.56252 l 0,-7.00002 c -0.0617,0.01 -0.12263,0.01 -0.1875,0 l -9,-0.7187 c -0.10741,-0.01 -0.17772,-0.2988 -0.1875,-0.875 10e-6,-0.098 0.01,-0.1582 0,-0.1875 l 1.4375,-1.0938 c -0.77148,-0.4589 -1.48241,-1.0859 -2.15625,-1.9062 -0.78124,-0.9473 -1.18748,-1.8105 -1.1875,-2.5625 2e-5,-0.6445 0.28907,-1.127 0.875,-1.4688 0.24415,-0.1367 0.79493,-0.3496 1.625,-0.5937 0.58594,-0.1758 0.87501,-0.3691 0.875,-0.5938 10e-6,-0.01 -0.46874,-0.6855 -1.40625,-2.0625 -0.94725,-1.3867 -1.40624,-2.4921 -1.40625,-3.3125 10e-6,-1.621 1.13282,-2.4374 3.4375,-2.4375 0.27344,10e-5 1.91797,0.1583 4.90625,0.5 0.94797,0.1091 1.72103,0.2512 2.375,0.4063 l 0,-6.875 c -0.17706,0.6636 -0.45852,1.2491 -0.84375,1.7187 -0.77148,0.9375 -1.9121,1.4063 -3.40625,1.4063 -0.2246,0 -0.53906,-0.012 -0.96875,-0.031 -0.43945,-0.02 -0.77538,-0.031 -1,-0.031 -0.68358,0 -1.18945,0.086 -1.53125,0.2812 -0.14648,-0.8593 -0.7578,-1.8574 -1.8125,-3 -1.12304,-1.2207 -1.77342,-2.1347 -1.96875,-2.75 -0.32225,-1.0156 -0.49998,-2.1464 -0.5,-3.4062 2e-5,-1.0254 0.18946,-2.0117 0.53125,-2.9688 0.46876,-1.2988 1.10743,-1.9374 1.9375,-1.9375 0.49806,1e-4 1.03907,0.2286 1.625,0.6875 1.6211,2.7442 2.4375,5.6192 2.4375,8.6563 0,0.5566 -0.0351,1.1328 -0.0937,1.7187 0.35157,0.4981 0.83204,0.75 1.4375,0.75 0.62501,0 1.11915,-0.2734 1.5,-0.7812 0.35157,-0.4492 0.53125,-0.9805 0.53125,-1.625 0,-0.9082 -0.39648,-2.3281 -1.1875,-4.2813 -0.79101,-1.9531 -1.18749,-3.3574 -1.1875,-4.1875 1e-5,-0.4785 0.11915,-0.8847 0.34375,-1.1875 2.25247,2.5614 3.64136,4.9495 4.15625,7.1563 l 0,-25.4063 0,-37.3125 -70,0 z m 60.4375,57.9063 c -0.36132,0.7227 -0.53124,1.5273 -0.53125,2.4062 1e-5,0.8106 0.14649,1.6719 0.46875,2.5313 0.36133,0.9668 0.83008,1.6426 1.40625,2.0625 0.31251,0.2246 0.57423,0.3437 0.75,0.3437 0.33204,0 0.5,-0.3105 0.5,-0.9062 0,-0.9082 -0.29686,-2.0176 -0.84375,-3.375 -0.54686,-1.3574 -1.12499,-2.3984 -1.75,-3.0625 z m 2.03125,16.4062 c -0.75194,1e-4 -1.12499,0.1094 -1.125,0.3438 1e-5,0.6543 0.36133,1.4707 1.09375,2.4375 0.85938,1.1328 2.41797,2.4316 4.625,3.9062 1.12305,0.752 1.65625,1.2676 1.65625,1.5313 0,0.3906 -0.21875,0.7285 -0.6875,1.0312 -0.41992,0.2832 -0.84179,0.4063 -1.28125,0.4063 -0.51758,0 -1.27538,-0.1113 -2.28125,-0.375 -1.01562,-0.2734 -1.79492,-0.4063 -2.3125,-0.4063 -0.30273,0 -0.57811,0.016 -0.8125,0.094 1.01564,1.1035 2.50586,2.1816 4.46875,3.1875 0.70783,0.3539 2.18539,0.9881 4.1875,1.8437 l 0,-12.5 c -0.34271,-0.098 -0.7718,-0.2357 -1.28125,-0.4375 -0.69336,-0.2734 -1.70508,-0.5156 -3.0625,-0.75 -1.29883,-0.2148 -2.37694,-0.3124 -3.1875,-0.3125 z m 0.4375,20.25 c -0.73242,0 -1.35546,0.2735 -1.84375,0.7813 -0.49803,0.5078 -0.74999,1.1113 -0.75,1.8437 1e-5,0.53722 0.18946,1.00592 0.53125,1.40632 0.47852,-0.2832 0.91212,-0.4063 1.3125,-0.4063 0.58594,0 1.18555,0.3164 1.78125,1 0.51758,0.6348 1.01368,1.2813 1.53125,1.9063 0.6543,0.6641 1.35157,0.9766 2.09375,0.9375 l 0.28125,-0.031 c 0,-1.3965 -0.0508,-2.4198 -0.1875,-3.0937 -0.2246,-1.1132 -0.68164,-2.03712 -1.375,-2.75002 -1.04492,-1.0645 -2.17382,-1.5938 -3.375,-1.5938 z m -0.3125,16.21882 c -0.0195,0.1758 -0.0312,0.3575 -0.0312,0.5625 0,0.5469 0.086,1.2909 0.28125,2.2187 0.22462,1.0644 0.3672,1.7871 0.40625,2.1875 1.06446,0.4102 2.67578,0.9609 4.84375,1.625 0.26367,-0.3516 0.63477,-0.5312 1.09375,-0.5312 0.31354,0 0.5785,0.071 0.8125,0.25 l 0,-5.5938 c -0.36769,0.061 -0.78615,0.094 -1.28125,0.094 -1.5332,0 -3.5664,-0.2754 -6.125,-0.8125 z"
       id="path3009-1"
       inkscape:connector-curvature="0" />
    <path
       style="fill:#39d02f;fill-opacity:1;fill-rule:evenodd;stroke:none"
       d="m 90,902.79961 0,141.56259 70,-16.875 0,-1.6563 0,-3.625 c -0.52997,-0.1516 -1.49029,-0.4525 -3.25,-1.0937 -1.38671,-0.5078 -2.65038,-0.8769 -3.8125,-1.0625 -1.25976,-0.205 -3.86913,-0.3867 -7.84375,-0.5625 -0.96678,-0.039 -1.72264,-0.088 -2.25,-0.1563 -1.24998,-0.1562 -1.89842,-0.3847 -1.9375,-0.6875 -0.0586,-0.098 -0.0937,-0.1953 -0.0937,-0.3125 2e-5,-0.4199 0.44533,-0.873 1.34375,-1.3125 0.25392,0.039 1.15236,0.1328 2.65625,0.25 l 5.21875,0.4063 c 3.33985,0.2539 5.875,0.7149 7.59375,1.4375 0.0586,-0.3027 0.0937,-0.6172 0.0937,-0.9688 0,-0.5859 -0.10548,-1.4511 -0.28125,-2.5937 -0.18555,-1.1523 -0.28125,-2.0079 -0.28125,-2.5938 0,-1.6699 0.57617,-2.8476 1.71875,-3.5312 0.14648,-0.088 0.3125,-0.1563 0.46875,-0.1563 0.23262,0 0.45134,0.073 0.65625,0.1875 l 0,-2.875 c -0.30876,0.4438 -0.70136,0.8486 -1.15625,1.2188 -0.23437,0.019 -0.46289,0.031 -0.6875,0.031 -2.28515,0 -4.26953,-0.8633 -5.96875,-2.5625 -1.07421,0 -1.99803,-0.4239 -2.75,-1.3125 -0.71288,-0.8496 -1.06249,-1.8437 -1.0625,-2.9375 0.008,-1.41272 0.53491,-2.67182 1.5625,-3.71882 1.0254,-1.0644 2.23048,-1.5937 3.65625,-1.5937 1.96289,0 3.68164,0.7793 5.15625,2.3125 0.49726,0.517 0.92042,1.058 1.25,1.625 0,-0.8577 -1e-5,-14.696 0,-16.90632 -1.39163,1.2504 -2.52426,1.98782 -3.375,2.15632 0.76171,1.3867 1.15625,2.9492 1.15625,4.6875 0,1.1816 -0.35938,2.1406 -1.0625,2.8437 -0.70313,0.6934 -1.65234,1.0313 -2.84375,1.0313 -1.63085,0 -3.3125,-0.6152 -5.03125,-1.875 -1.83593,-1.3574 -2.74999,-2.8125 -2.75,-4.375 1e-5,-0.4492 0.14454,-1.0977 0.4375,-1.9375 0.29298,-0.8496 0.43751,-1.49802 0.4375,-1.93752 1e-5,-0.1953 -0.0371,-0.4609 -0.125,-0.8125 -0.0977,-0.3613 -0.15623,-0.6484 -0.15625,-0.8438 2e-5,-1.2792 0.50587,-1.9374 1.53125,-1.9375 0.7129,10e-5 2.06837,0.5157 4.03125,1.5313 1.9629,1.0059 3.37109,1.5 4.25,1.5 0.76172,0 1.67383,-0.4238 2.71875,-1.3125 0.26135,-0.2386 0.5199,-0.4801 0.78125,-0.7188 l 0,-5.9687 c -0.3291,0.1256 -0.72461,0.2187 -1.1875,0.2187 -1.06445,0 -2.41406,-0.3339 -4.09375,-0.9687 -2.05077,-0.7813 -3.41796,-1.2168 -4.0625,-1.3438 0.1172,-0.3222 0.48829,-0.7636 1.09375,-1.2812 0.64454,0.049 1.63282,0.3379 3,0.875 1.28907,0.5078 2.31837,0.7813 3.03125,0.7812 0.6836,10e-5 1.00001,-0.3496 1,-1.0625 1e-5,-0.5371 -0.14649,-1.3046 -0.46875,-2.2812 -0.27344,-0.7519 -0.54882,-1.498 -0.8125,-2.25 0.23438,-0.1855 0.49805,-0.2812 0.78125,-0.2813 0.3418,10e-5 0.72852,0.1348 1.1875,0.4375 0.19953,0.3337 0.36598,0.6495 0.53125,0.9688 l 0,-3.7813 c -0.49548,0.2365 -1.24324,0.375 -2.21875,0.375 -0.70312,0 -1.87304,-0.1093 -3.5625,-0.3437 -1.68944,-0.2441 -2.86523,-0.375 -3.5,-0.375 -0.20507,0 -0.38671,0.012 -0.5625,0.031 0.22462,-0.8398 0.63478,-1.4902 1.25,-1.9688 0.0781,0 0.23439,0.012 0.46875,0.031 0.19532,0.01 0.35157,0 0.46875,0 0.28321,10e-5 0.51173,-0.072 0.6875,-0.2187 -1.80663,-1.2891 -2.90038,-2.1406 -3.28125,-2.5313 -1.05468,-1.0742 -1.56249,-2.3007 -1.5625,-3.6875 1e-5,-1.5917 0.77345,-2.7929 2.375,-3.5937 1.24024,-0.625 2.75391,-0.9375 4.53125,-0.9375 1.71651,0 3.35957,0.2854 4.90625,0.8125 1e-5,-4.6405 0,-11.0076 0,-12.625 0,-4.632 0,-0.025 0,-36.15625 l 0,-0.8125 -70,0 z m 65.125,50.96875 c -1.31836,0 -2.28125,0.1289 -2.90625,0.3437 -1.05468,0.3516 -1.59373,1.0274 -1.59375,2.0625 2e-5,1.4942 0.87696,2.8028 2.625,3.9063 0.9375,0.5859 2.58204,1.2852 4.90625,2.125 0.80881,0.2937 1.40917,0.5773 1.84375,0.8125 l 0,-7.75 c -0.27235,-0.2714 -0.5334,-0.5731 -0.8125,-0.9688 -1.11327,-0.3417 -2.48047,-0.5312 -4.0625,-0.5312 z m -7.65625,12.8125 c 0.36134,0.2637 0.56252,0.5645 0.5625,0.9062 2e-5,0.3223 -0.20116,0.6016 -0.5625,0.875 0.0391,0.1758 0.32423,0.5704 0.8125,1.1563 0.46876,0.5469 0.68751,0.9336 0.6875,1.1875 1e-5,0.5371 -0.56835,0.8125 -1.75,0.8125 -1.11327,0 -1.75975,-0.5547 -1.90625,-1.6875 0.21486,-0.6641 0.43166,-1.3574 0.65625,-2.0313 0.32228,-0.7324 0.81642,-1.121 1.5,-1.2187 z m 1.59375,17.65622 c -0.72265,0.4395 -1.06249,1.3516 -1.0625,2.7188 1e-5,0.9961 0.77149,1.959 2.34375,2.9062 1.43555,0.8692 2.68751,1.3125 3.78125,1.3125 1.16211,0 1.75,-0.5039 1.75,-1.5 0,-0.8593 -0.25195,-1.9433 -0.75,-3.2812 -0.23437,-0.6348 -1.12499,-1.1406 -2.6875,-1.5313 -0.18554,-0.049 -1.31444,-0.2734 -3.375,-0.625 z m 4.28125,13.5938 c -0.73241,0 -1.32421,0.2734 -1.8125,0.7812 -0.49804,0.5079 -0.74999,1.1114 -0.75,1.84382 1e-5,0.5371 0.15822,1.0059 0.5,1.4063 0.47853,-0.2832 0.94337,-0.4063 1.34375,-0.4063 0.58595,0 1.15431,0.3164 1.75,1 0.51759,0.6347 1.04493,1.2813 1.5625,1.9063 0.6543,0.6641 1.35156,0.9766 2.09375,0.9375 l 0.28125,-0.031 c 0,-1.3965 -0.0821,-2.4199 -0.21875,-3.0937 -0.22461,-1.1133 -0.68163,-2.0372 -1.375,-2.75012 -1.04491,-1.0644 -2.17382,-1.5937 -3.375,-1.5937 z M 160,1011.7684 c -0.4764,0.077 -0.90662,0.1408 -0.9375,0.1563 -0.0977,0.4785 -0.15625,0.9824 -0.15625,1.5 0,1.2207 0.3125,2.6758 0.9375,4.375 0.0691,0.189 0.0928,0.2626 0.15625,0.4375 l 0,-6.4688 z"
       id="path3009-1-0"
       inkscape:connector-curvature="0" />
    <text
       xml:space="preserve"
       style="font-size:40px;font-style:normal;font-variant:normal;font-weight:normal;font-stretch:normal;line-height:125%;letter-spacing:0px;word-spacing:0px;fill:#000000;fill-opacity:1;stroke:none;font-family:Arial;-inkscape-font-specification:Arial"
       x="217.94386"
       y="111.49658"
       id="text3054"
       sodipodi:linespacing="125%"
       transform="translate(0,902.36218)"><tspan
         sodipodi:role="line"
         id="tspan3056"
         x="217.94386"
         y="111.49658" /></text>
    <text
       xml:space="preserve"
       style="font-size:40px;font-style:normal;font-variant:normal;font-weight:normal;font-stretch:normal;line-height:125%;letter-spacing:0px;word-spacing:0px;fill:#000000;fill-opacity:1;stroke:none;font-family:Arial;-inkscape-font-specification:Arial"
       x="315.29214"
       y="116.2187"
       id="text3079"
       sodipodi:linespacing="125%"
       transform="translate(0,902.36218)"><tspan
         sodipodi:role="line"
         id="tspan3081"
         x="315.29214"
         y="116.2187" /></text>
    <text
       xml:space="preserve"
       style="font-size:25px;font-style:normal;font-weight:normal;line-height:125%;letter-spacing:0px;word-spacing:0px;fill:#000000;fill-opacity:1;stroke:none;font-family:Bitstream Vera Sans"
       x="-1017.2615"
       y="349.14578"
       id="text3029-6-8-5-3"
       sodipodi:linespacing="125%"
       transform="matrix(0.01888054,-0.99982175,0.99982175,0.01888054,0,0)"><tspan
         sodipodi:role="line"
         id="tspan3031-1-7-1-9"
         x="-1017.2615"
         y="349.14578"
         style="font-size:23px;font-style:normal;font-variant:normal;font-weight:bold;font-stretch:normal;font-family:Wargames;-inkscape-font-specification:Wargames Bold" /></text>
  </g>
</svg>
